<svg xmlns="http://www.w3.org/2000/svg" preserveAspectRatio="none" style="display: block;" version="1.1" viewBox="0 0 2048 2048">
<path d="M 278.983 1810.47 C 280.133 1806.4 283.33 1798.76 286.803 1797.74 C 366.013 1774.68 419.777 1703.48 465.026 1638.81 C 491.164 1601.45 447.402 1571.05 419.541 1554.99 C 354.831 1517.67 304.105 1461.97 257.224 1404.9 C 235.69 1378.68 220.826 1351.22 210.886 1318.81 C 160.743 1173.34 138.072 1021.58 124.719 868.747 C 116.917 779.454 125.517 696.954 148.469 610.255 C 197.375 425.513 333.591 289.782 507.165 216.956 C 621.674 168.911 742.833 142.807 866.371 131.306 C 885.194 129.554 905.078 130.697 924.003 129.197 C 1052.92 117.831 1186.12 120.53 1312.29 151.536 C 1318.72 153.115 1338.26 153.067 1346.55 153.578 C 1365.1 154.859 1383.62 156.603 1402.08 158.808 C 1505.07 171.32 1613.05 202.879 1701.41 258.089 C 1807.69 324.974 1883.05 431.346 1910.89 553.797 C 1917.89 584.285 1924.76 630.495 1925.94 661.91 C 1928.1 719.604 1923.1 778.542 1918.58 835.898 C 1910.76 935.18 1903 1031.48 1877.28 1128.28 C 1867.69 1164.37 1859.12 1197.05 1839.71 1230.23 C 1818.6 1266.31 1789.4 1301.11 1759.82 1330.55 C 1739.17 1350.79 1711.95 1365.81 1695.64 1389.96 C 1687.36 1402.21 1688.89 1421.55 1698.66 1432.56 C 1725.55 1462.86 1759.67 1493.4 1795.51 1512.52 C 1807.75 1519.04 1825.07 1518.59 1837.58 1523.42 C 1839.76 1524.71 1842.96 1528.59 1842.75 1531 C 1838.41 1582.34 1804.29 1630.96 1750.45 1637.11 C 1725.69 1639.94 1714.63 1637.62 1691.28 1635.62 C 1638.46 1631.12 1591.72 1616.05 1547.34 1586.97 C 1536.38 1579.92 1523.29 1573.35 1512.54 1565.28 L 1511.36 1564.39 L 1510.21 1565.31 C 1500.86 1572.93 1492.47 1582.08 1483.36 1590.14 C 1464.07 1607.23 1443.32 1623.54 1421.31 1637 C 1379.09 1662.82 1334.38 1678.47 1287.67 1693.85 C 1214.67 1717.9 1144.94 1734.05 1068.46 1742.57 C 1061.32 1743.37 1052.01 1743.47 1044.64 1743.89 C 1037.25 1744.31 1025.95 1746.34 1019.16 1746.29 C 992.296 1746.12 964.549 1746.57 937.863 1743.91 C 886.899 1738.83 842.498 1731.53 794.309 1713.41 C 781.339 1708.54 767.807 1700.43 755.677 1696.18 C 746.049 1703.12 737.627 1719.47 729.77 1729.06 C 647.917 1828.95 553.627 1909.68 420.655 1924.11 C 395.919 1929.15 358.598 1921.39 337.483 1907.11 C 303.084 1883.85 287.688 1849.27 278.983 1810.47 z" fill="currentColor" transform="translate(0,0)"></path>
<path d="M 750.676 1688.17 C 776.04 1696.93 803.331 1709.64 828.796 1717.09 C 866.679 1728.19 919.742 1734.12 958.737 1735.83 C 1071.44 1740.75 1181.27 1719.31 1287.88 1684.13 C 1321.9 1672.91 1351.45 1665.21 1384.09 1648.12 C 1415.44 1632.02 1443.77 1611.03 1471.31 1589.21 C 1478.11 1583.82 1497.81 1561.45 1504.53 1561.7 C 1507.12 1563.32 1508.17 1564.28 1511.36 1564.39 L 1510.21 1565.31 C 1500.86 1572.93 1492.47 1582.08 1483.36 1590.14 C 1464.07 1607.23 1443.32 1623.54 1421.31 1637 C 1379.09 1662.82 1334.38 1678.47 1287.67 1693.85 C 1214.67 1717.9 1144.94 1734.05 1068.46 1742.57 C 1061.32 1743.37 1052.01 1743.47 1044.64 1743.89 C 1037.25 1744.31 1025.95 1746.34 1019.16 1746.29 C 992.296 1746.12 964.549 1746.57 937.863 1743.91 C 886.899 1738.83 842.498 1731.53 794.309 1713.41 C 781.339 1708.54 767.807 1700.43 755.677 1696.18 C 746.049 1703.12 737.627 1719.47 729.77 1729.06 C 647.917 1828.95 553.627 1909.68 420.655 1924.11 C 421.068 1923.47 422.459 1921.31 423.219 1921.13 C 469.632 1909.69 514.659 1897.65 556.221 1873.64 C 614.398 1840.03 663.365 1795.71 707.046 1745.13 C 722.72 1726.98 735.666 1706.64 750.676 1688.17 z" fill="currentColor" transform="translate(0,0)"></path>
<path d="M 156.693 664.842 C 160.962 652.563 163.826 633.149 167.855 619.244 C 181.347 572.678 196.972 535.248 219.248 492.225 C 234.525 462.152 253.616 434.175 276.049 408.985 C 282.155 402.048 289.052 395.828 295.297 388.988 C 313.263 369.191 333.21 348.22 353.891 331.344 C 435.648 264.627 531.597 220.948 633.713 195.972 C 647.408 192.622 661.651 187.799 675.321 184.265 C 687.241 181.697 701.77 176.14 713.801 174.89 C 764.791 169.59 814.411 157.799 865.366 152.397 C 890.148 149.77 913.322 150.543 937.489 148.992 L 1005.79 144.456 C 1015.57 143.785 1026.53 142.292 1036.17 142.143 C 1190.68 139.739 1349.55 164.306 1487.57 236.713 C 1545.86 268.725 1599.11 310.288 1640.68 362.492 C 1651.45 376.056 1665.14 390.453 1672.93 406.014 C 1682.12 424.403 1692.5 440.655 1703.19 458.1 C 1711.7 471.987 1717.42 489.717 1722.93 505.032 C 1724.84 510.349 1724.32 513.518 1724.15 519.177 C 1742.05 581.293 1754.23 633.855 1756.77 698.685 C 1761.39 816.653 1736.47 932.58 1710.94 1047.05 C 1696.32 1112.61 1681.27 1178.34 1659.31 1241.99 C 1639.1 1300.59 1613.99 1357.39 1584.24 1411.78 C 1552.9 1468.43 1523.3 1515.35 1476.31 1561.22 C 1462.98 1574.24 1440.37 1594.8 1425.06 1605.29 C 1361.95 1648.23 1286.63 1667.76 1214.61 1690.13 C 1190.36 1697.66 1164.78 1700.67 1140.08 1705.68 C 1110.39 1711.71 1085 1715.53 1054.95 1717.55 C 980.411 1722.56 906.343 1720.84 834.209 1699.38 C 816.145 1694.07 788.352 1684.88 772.264 1675.93 C 770.753 1675.1 769.258 1674.23 767.78 1673.33 C 778.278 1655.83 791.931 1638.93 802.43 1621.41 C 804.19 1618.47 804.65 1614.65 804.196 1611.24 C 801.5 1607.05 793.348 1603.94 790.646 1607.97 C 723.27 1708.48 644.29 1807.51 533.892 1862.89 C 516.091 1871.82 497.358 1877.39 478.666 1883.59 C 411.748 1905.77 334.751 1904.41 314.21 1821.99 C 353.792 1808.26 400.18 1767.22 429.191 1737 C 445.353 1720.17 460.552 1697.29 474.02 1677.99 C 492.21 1651.92 512.269 1625.88 500.017 1592.33 C 484.689 1550.35 447.25 1537.09 413.186 1513.47 C 394.719 1509.65 335.528 1457.93 321.667 1441.57 C 302.133 1418.52 268.216 1379.39 254.243 1353.03 C 239.111 1324.48 229.695 1287.72 218.927 1257.15 C 216.734 1247.6 213.464 1237.87 211.054 1228.05 C 201.981 1196.29 193.945 1161.13 186.719 1128.84 C 182.505 1110.01 171.794 1063.5 170.555 1045.11 L 172.305 1043.74 C 173.151 1040.48 169.83 1040.62 169.354 1039.04 C 163.486 1019.54 161.647 999.68 158.284 979.662 C 158.47 977.019 157.068 965.778 156.701 962.183 C 155.327 949.806 154.244 937.399 153.453 924.971 C 150.734 911.476 147.011 876.388 145.977 862.339 C 142.112 836.022 143.916 770.504 147.436 742.872 C 147.543 734.822 147.491 726.188 149.874 718.539 C 147.857 715.683 155.703 670.909 156.693 664.842 z" fill="none" transform="translate(0,0)"></path>
<path d="M 156.693 664.842 C 160.962 652.563 163.826 633.149 167.855 619.244 C 181.347 572.678 196.972 535.248 219.248 492.225 C 234.525 462.152 253.616 434.175 276.049 408.985 C 282.155 402.048 289.052 395.828 295.297 388.988 C 313.263 369.191 333.21 348.22 353.891 331.344 C 435.648 264.627 531.597 220.948 633.713 195.972 C 647.408 192.622 661.651 187.799 675.321 184.265 C 687.241 181.697 701.77 176.14 713.801 174.89 C 764.791 169.59 814.411 157.799 865.366 152.397 C 890.148 149.77 913.322 150.543 937.489 148.992 L 1005.79 144.456 C 1015.57 143.785 1026.53 142.292 1036.17 142.143 C 1190.68 139.739 1349.55 164.306 1487.57 236.713 C 1545.86 268.725 1599.11 310.288 1640.68 362.492 C 1651.45 376.056 1665.14 390.453 1672.93 406.014 C 1682.12 424.403 1692.5 440.655 1703.19 458.1 C 1711.7 471.987 1717.42 489.717 1722.93 505.032 C 1724.84 510.349 1724.32 513.518 1724.15 519.177 C 1721.06 510.69 1717.96 502.773 1714.2 494.54 C 1662.94 382.221 1575.61 285.821 1462.37 233.002 C 1381.19 194.358 1294.22 169.293 1204.93 158.806 C 1176.23 155.715 1145.91 156.335 1117.01 153.08 C 1109.36 152.219 1100.02 150.418 1092.54 150.583 C 1031.02 151.939 970.239 153.255 909.031 160.208 C 893.075 162.02 875.814 160.145 859.7 161.791 C 831.867 165.02 803.756 169.891 776.084 174.314 C 761.262 176.683 745.368 176.56 730.471 179.452 C 673.945 190.127 617.291 209.225 562.345 226.52 C 543.889 232.33 524.257 241.907 505.844 248.455 C 462.762 268.711 419.735 293.186 380.71 320.442 C 361.086 334.149 342.305 355.029 324.289 370.94 C 311.297 382.699 298.321 395.659 286.764 408.896 C 253.078 447.479 228.023 490.408 206.132 536.537 C 192.625 564.997 184.974 597.483 173.707 626.939 C 168.791 639.792 168.691 663.551 162.368 674.448 C 159.684 672.914 158.178 668.024 156.693 664.842 z" fill="currentColor" transform="translate(0,0)"></path>
<path d="M 221.245 1244.24 C 231.678 1272.87 238.052 1306.48 251.029 1334.26 C 272.792 1380.86 317.221 1427.58 354.481 1463.39 C 372.359 1480.58 394.714 1496.78 413.186 1513.47 C 394.719 1509.65 335.528 1457.93 321.667 1441.57 C 302.133 1418.52 268.216 1379.39 254.243 1353.03 C 239.111 1324.48 229.695 1287.72 218.927 1257.15 C 219.567 1252.24 220.12 1249.07 221.245 1244.24 z" fill="currentColor" transform="translate(0,0)"></path>
<path d="M 164.018 968.82 C 168.785 988.109 165.748 1010.64 173.995 1030.11 C 174.934 1032.32 174.015 1041.03 174.71 1043.86 C 179.257 1060.22 181.21 1077.28 184.132 1094.01 C 185.514 1101.92 188.31 1110.01 190.112 1117.86 C 193.773 1138.76 201.412 1162.21 204.217 1182.78 C 206.459 1194.43 212.628 1221.19 217.528 1231.92 C 215.613 1231.03 212.928 1229.22 211.054 1228.05 C 201.981 1196.29 193.945 1161.13 186.719 1128.84 C 182.505 1110.01 171.794 1063.5 170.555 1045.11 L 172.305 1043.74 C 173.151 1040.48 169.83 1040.62 169.354 1039.04 C 163.486 1019.54 161.647 999.68 158.284 979.662 L 162.849 978.221 C 164.966 974.957 164.134 973.308 164.018 968.82 z" fill="currentColor" transform="translate(0,0)"></path>
<path d="M 147.436 742.872 L 150.453 741.476 C 152.184 744.99 150.505 746.555 151.764 751.326 C 152.264 756.775 151.933 761.678 151.709 767.122 C 150.722 791.01 150.193 814.999 151.298 838.89 C 151.483 842.898 152.389 849.107 151.494 852.885 C 149.462 855.32 149.582 857.916 149.13 861.229 C 147.873 861.748 147.294 862.107 145.977 862.339 C 142.112 836.022 143.916 770.504 147.436 742.872 z" fill="currentColor" transform="translate(0,0)"></path>
<path d="M 151.494 852.885 C 154.82 874.906 156.512 901.697 158.033 923.967 L 153.453 924.971 C 150.734 911.476 147.011 876.388 145.977 862.339 C 147.294 862.107 147.873 861.748 149.13 861.229 C 149.582 857.916 149.462 855.32 151.494 852.885 z" fill="currentColor" transform="translate(0,0)"></path>
<path d="M 156.693 664.842 C 158.178 668.024 159.684 672.914 162.368 674.448 C 162.597 675.478 163.182 677.923 162.83 678.941 C 157.086 695.573 157.764 714.739 152.674 731.307 C 152.114 725.74 152.115 723.74 149.874 718.539 C 147.857 715.683 155.703 670.909 156.693 664.842 z" fill="currentColor" transform="translate(0,0)"></path>
<path d="M 153.453 924.971 L 158.033 923.967 C 158.794 926.231 163.722 964.562 164.018 968.82 C 164.134 973.308 164.966 974.957 162.849 978.221 L 158.284 979.662 C 158.47 977.019 157.068 965.778 156.701 962.183 C 155.327 949.806 154.244 937.399 153.453 924.971 z" fill="currentColor" transform="translate(0,0)"></path>
<path d="M 211.054 1228.05 C 212.928 1229.22 215.613 1231.03 217.528 1231.92 L 219.037 1233.01 L 218.942 1234.97 C 218.847 1237.2 218.712 1236.37 219.021 1237.67 L 221.245 1244.24 C 220.12 1249.07 219.567 1252.24 218.927 1257.15 C 216.734 1247.6 213.464 1237.87 211.054 1228.05 z" fill="currentColor" transform="translate(0,0)"></path>
<path d="M 149.874 718.539 C 152.115 723.74 152.114 725.74 152.674 731.307 C 153.622 738.583 152.963 744.195 151.764 751.326 C 150.505 746.555 152.184 744.99 150.453 741.476 L 147.436 742.872 C 147.543 734.822 147.491 726.188 149.874 718.539 z" fill="currentColor" transform="translate(0,0)"></path>
<path d="M 996.782 526.436 C 1032.85 528.543 1068.7 528.58 1104.53 534.231 C 1124.4 537.364 1143.98 542.698 1163.24 548.414 C 1258.56 576.715 1347.43 631.48 1406.42 712.725 C 1461.83 788.218 1484.58 882.812 1469.57 975.248 C 1453.5 1072.49 1389.13 1165.78 1309.98 1222.93 C 1228.31 1281.9 1122.41 1315.42 1022.14 1320.67 C 985.549 1322.39 948.878 1320.12 912.777 1313.9 C 907.204 1313 901.748 1311.42 896.286 1310.01 C 882.788 1316.91 873.537 1327.75 861.374 1336.31 C 827.989 1359.81 783.515 1373.14 742.942 1375.09 C 718.56 1376.27 682.945 1371.94 664.421 1354.2 C 660.647 1350.58 657.824 1346.01 657.9 1340.63 C 658.079 1327.93 677.611 1316.8 687.145 1306.74 C 703.849 1289.1 722.787 1262.64 721.978 1237.17 L 721.921 1235.6 C 721.143 1234.7 720.349 1233.83 719.55 1232.95 C 712.567 1225.25 703.752 1219.21 695.659 1212.71 C 620.526 1152.41 566.937 1064.52 556.567 968.093 C 547.818 886.731 560.176 811.788 601.146 740.461 C 609.827 725.348 619.443 709.787 630.441 696.271 C 698.697 612.389 802.22 555.808 907.915 535.875 C 937.437 530.307 967.011 529.469 996.782 526.436 z" fill="currentColor" transform="translate(0,0)"></path>
<path d="M 958 771.607 C 973.084 769.036 1000.16 770.886 1016.16 770.889 C 1037.9 770.892 1064.78 768.877 1086.1 771.72 C 1091.54 772.445 1095.28 774.092 1099.97 776.801 C 1101.43 779.413 1102.49 782.079 1103.46 784.91 C 1108.92 800.878 1112.38 817.933 1116.94 834.204 L 1149.26 948.955 C 1158.78 981.378 1168.64 1013.7 1178.82 1045.92 C 1182.7 1058.39 1187.63 1070.78 1190.95 1083.39 C 1192.21 1088.19 1193.23 1093.68 1190.95 1098.31 C 1189.22 1099.67 1187.75 1100.56 1185.63 1101.19 C 1176.3 1103.99 1132.44 1104.3 1122.34 1102.76 C 1119.66 1102.35 1117.31 1101.08 1114.97 1099.79 C 1114.28 1098.59 1113.61 1097.37 1112.93 1096.16 C 1101.04 1074.9 1102.31 1048.69 1088.51 1027.85 C 1084.76 1026.55 1081.15 1025.81 1077.25 1025.12 C 1061.81 1023.39 971.083 1023.2 958.453 1025.97 C 939.935 1030.03 937.452 1081.95 927.559 1097.7 C 927.377 1097.99 927.184 1098.28 926.997 1098.56 C 924.654 1099.72 922.229 1100.92 919.737 1101.72 C 909.043 1105.14 861.09 1106.41 851.634 1101.25 C 848.774 1099.68 847.332 1097.84 846.395 1094.69 C 847.432 1085.75 851.162 1076.65 853.694 1067.99 L 868.837 1015.5 C 886.453 954.243 903.191 892.733 919.046 830.993 C 921.843 819.646 927.993 784.085 934.439 776.572 C 939.15 771.082 951.203 772.289 958 771.607 z" fill="none" transform="translate(0,0)"></path>
<path d="M 1015.95 834.833 C 1020.44 834.952 1024.23 835.913 1027.8 838.812 C 1032.2 842.394 1035.63 847.745 1038.11 852.786 C 1045.54 867.876 1049.54 885.783 1054.65 901.78 C 1058.88 915.03 1065.26 928.683 1066.73 942.588 C 1067.11 946.21 1067.83 951.837 1065.45 954.838 C 1054.4 961.339 1035.86 959.124 1023.35 959.044 C 1012.59 960.704 998.705 960.924 988.07 958.386 C 983.092 957.199 976.094 954.248 973.907 949.158 C 968.954 937.627 989.971 868.365 995.422 854.828 C 999.683 844.248 1005.76 839.228 1015.95 834.833 z" fill="currentColor" transform="translate(0,0)"></path>
<path d="M 846.784 611.244 L 848.746 612.155 L 848.997 613.984 C 847.166 617.395 844.123 619.688 841.018 621.91 C 832.1 628.292 822.032 633.582 812.784 639.554 C 791.678 653.183 771.158 667.724 752.209 684.262 C 702.683 727.487 668.902 773.245 649.097 836.59 C 644.4 851.611 640.214 866.592 637.968 882.209 C 635.386 900.172 636.159 918.096 634.81 936.089 C 634.501 940.22 634.427 946.108 631.067 948.97 C 628.277 948.488 628.126 947.486 626.449 945.297 C 625.478 942.062 624.58 938.806 623.756 935.531 C 610.019 879.762 621.578 808.506 651.556 759.338 C 685.639 703.438 736.123 663.892 793.429 633.693 C 810.333 624.785 828.154 615.761 846.784 611.244 z" fill="none" transform="translate(0,0)"></path>
<path d="M 900.94 763.88 L 902.127 764.376 L 901.139 766.264 C 893.99 769.473 888.833 773.043 882.935 778.118 L 882.129 777.307 C 882.151 777.018 882.136 776.724 882.194 776.441 C 882.905 772.946 886.618 769.182 889.321 767.027 C 889.668 766.75 890.028 766.489 890.378 766.216 C 893.75 763.581 896.774 763.866 900.94 763.88 z" fill="currentColor" transform="translate(0,0)"></path>
<path d="M 1274.46 726.824 L 1276.19 727.037 L 1276.23 728.371 C 1269.22 736.026 1259.46 740.334 1250.44 745.192 L 1249.49 745.038 C 1249.86 741.079 1270.37 730.659 1274.46 726.824 z" fill="currentColor" transform="translate(0,0)"></path>
<path d="M 787.385 990.66 L 791.494 991.92 C 794.425 997.041 788.549 1002.15 788.657 1007.49 C 788.688 1009.02 789.814 1011.55 790.257 1013.1 L 788.004 1012.91 C 781.095 1007.95 788.657 1001.38 789.118 995.561 C 789.192 994.636 787.751 991.693 787.385 990.66 z" fill="currentColor" transform="translate(0,0)"></path>
<path d="M 1124.02 710.987 L 1123.66 713.178 C 1117.08 719.029 1110.63 722.751 1102.72 726.381 L 1102.88 724.364 C 1109.19 719.101 1116.22 713.754 1124.02 710.987 z" fill="currentColor" transform="translate(0,0)"></path>
<path d="M 792.878 593.66 L 795.392 594.036 C 796.409 596.187 797.627 597.684 797.277 600.086 C 794.684 599.441 794.195 599.192 791.702 600.032 C 789.205 601.184 787.614 601.996 784.77 601.625 L 784.531 600.445 C 786.694 597.163 789.567 595.663 792.878 593.66 z" fill="currentColor" transform="translate(0,0)"></path>
<path d="M 1260.27 618.731 C 1261.97 620.708 1262.96 622.22 1263.9 624.654 C 1263.01 628.274 1262.13 628.51 1259.34 630.818 C 1258.45 630.456 1257.59 629.848 1256.76 629.355 C 1256.37 625.476 1258.59 622.1 1260.27 618.731 z" fill="currentColor" transform="translate(0,0)"></path>
<path d="M 729.549 923.612 L 730.66 924.802 C 730.151 926.803 730.409 926.296 729.715 927.711 C 727.199 932.85 725.347 937.963 725.371 943.748 C 723.394 943.138 724.389 943.599 722.449 942.239 C 723.438 935.657 724.914 928.617 729.549 923.612 z" fill="currentColor" transform="translate(0,0)"></path>
<path d="M 1086.44 1275.29 C 1088.58 1275.34 1088.98 1274.92 1090.66 1276.39 C 1087.79 1278.49 1084.33 1278.83 1080.92 1279.52 C 1079.16 1279.47 1077.5 1279.28 1075.75 1279.06 L 1075.19 1277.95 C 1078.71 1276.01 1082.52 1275.79 1086.44 1275.29 z" fill="currentColor" transform="translate(0,0)"></path>
<path d="M 827.949 1277.16 C 833.636 1276.78 839.179 1279.57 844.25 1281.84 C 838.458 1282.07 832.776 1280.32 827.949 1277.16 z" fill="currentColor" transform="translate(0,0)"></path>
<path d="M 929.277 697.591 L 930.675 698.211 C 930.085 701.196 926.721 704.091 924.68 706.346 L 923.171 705.46 C 924.005 702.377 927.085 699.863 929.277 697.591 z" fill="currentColor" transform="translate(0,0)"></path>
<path d="M 608.187 1588.75 C 609.706 1588.83 611.539 1588.82 612.995 1589.25 C 615.269 1589.91 617.553 1591.25 618.533 1593.52 C 619.896 1596.67 619.414 1600.23 618.374 1603.38 C 611.174 1625.22 545.846 1713.63 525.512 1723.67 C 522.245 1722.4 519.3 1720.69 517.005 1717.95 C 515.585 1716.26 514.81 1714.01 515.344 1711.81 C 517.531 1702.8 539.622 1686.56 546.583 1678.74 C 561.407 1662.09 577.491 1638.16 588.83 1618.78 C 593.461 1610.86 596.9 1601.74 602.056 1594.22 C 603.661 1591.88 605.868 1590.32 608.187 1588.75 z" fill="currentColor" transform="translate(0,0)"></path>
<path d="M 708.275 1595.67 C 711.717 1595.71 714.941 1596.38 717.693 1598.54 C 719.086 1599.64 720.195 1601.42 720.18 1603.22 C 720.133 1608.78 714.43 1616.04 711.577 1620.72 C 686.072 1662.52 653.126 1697.44 621.943 1734.87 C 621.027 1735.23 620.988 1735.29 619.848 1735.46 C 617.09 1735.87 615.015 1735.42 612.762 1733.78 C 612.054 1732.5 611.484 1731.5 611.48 1729.99 C 611.459 1721.55 628.476 1709.27 634.122 1702.36 C 648.354 1684.94 663.133 1667.47 675.769 1648.84 C 683.157 1637.95 702.118 1601.51 708.275 1595.67 z" fill="currentColor" transform="translate(0,0)"></path>
<path d="M 1398.38 177.203 C 1658.21 209.125 1879.73 350.703 1905.78 629.383 C 1911.29 680.132 1912.89 725.229 1907.32 776.601 C 1892.74 911.335 1886.2 1061.32 1837.33 1188.91 C 1821.17 1231.14 1762.9 1300.08 1729.97 1326.61 C 1669.92 1374.97 1637.43 1410.06 1707.76 1472.94 C 1742.39 1503.79 1770.25 1533.1 1819.91 1542.43 C 1814.71 1563.32 1802.8 1582.17 1787.74 1597.3 C 1763.36 1619.49 1729.01 1615.5 1699.19 1613.54 C 1654.6 1610.6 1618.12 1601.66 1578.2 1581.54 C 1559.58 1572.15 1543.44 1558.46 1525.45 1549.13 L 1524.2 1548.49 C 1526.35 1544.47 1529.04 1540.95 1532.04 1537.54 C 1544.1 1523.87 1554.13 1508.79 1563.86 1493.4 C 1601.14 1435.46 1632.77 1374.08 1658.33 1310.1 C 1690.31 1229.03 1713.19 1132.65 1731.54 1047.19 L 1751.61 949.78 C 1753.93 938.534 1758.14 924.888 1759.55 913.755 C 1763.8 880.388 1770.11 845.957 1773.44 812.614 C 1781.2 738.006 1778.28 662.672 1764.78 588.887 C 1762.49 577.024 1761.03 564.454 1758.11 552.777 C 1718.68 395.221 1597.85 261.179 1449.55 197.271 C 1432.83 190.068 1415.37 183.89 1398.38 177.203 z" fill="none" transform="translate(0,0)"></path>
</svg>