<svg xmlns="http://www.w3.org/2000/svg" preserveAspectRatio="none" style="display: block;" version="1.1" viewBox="0 0 2048 2048">
<path d="M 669.49 225.453 C 708.497 223.839 755.729 225.004 794.627 225.962 C 863.837 227.35 932.997 230.605 1002.03 235.723 C 1074.66 240.778 1147.18 247.264 1219.55 255.176 C 1365.13 269.109 1509.86 290.905 1653.1 320.47 C 1758.58 342.719 1895.89 374.998 1921.83 497.946 C 1946.68 615.69 1948.59 740.796 1949.23 860.887 C 1950.06 922.853 1948.98 984.83 1946 1046.73 C 1943.49 1106.27 1938.75 1173.09 1926.4 1231.38 C 1915.49 1282.86 1900.22 1313.82 1855.57 1342.33 C 1837.08 1379.64 1813.22 1394.09 1775.17 1410.07 C 1719.79 1433.32 1665.52 1445.71 1606.19 1452.87 C 1597.78 1499.37 1587.8 1545.57 1576.27 1591.39 C 1565.44 1636.02 1553.83 1681.03 1538.21 1724.27 C 1532.56 1739.89 1524.79 1755.91 1517.8 1771.02 C 1540.16 1766.62 1562.96 1762.38 1585.87 1761.63 C 1595.26 1761.32 1598.15 1761.59 1604.59 1767.82 C 1615.05 1766.68 1631.24 1762.53 1641.08 1764.82 C 1651.1 1767.16 1643.77 1776.54 1646.27 1781.12 C 1657.54 1781.55 1675.13 1776.18 1688.09 1776.26 C 1696.26 1773.32 1704.08 1784.73 1708.1 1784.81 C 1721.41 1785.08 1748.39 1777.41 1757.97 1789.3 C 1758.64 1792.79 1758.99 1791.29 1757.33 1794.04 C 1748.81 1799.45 1706.51 1797.19 1693.86 1799.2 C 1686.3 1800.41 1684.1 1794.24 1682.51 1793.84 C 1666.74 1789.87 1632.06 1809 1616.94 1801.88 C 1614.02 1799.01 1613.85 1797.41 1612.45 1793.4 L 1612.54 1792.22 L 1611.57 1791.16 C 1596.94 1791.87 1560.17 1810.25 1563.71 1781.82 C 1546.17 1785.44 1524.95 1788.91 1508.15 1793.72 C 1489.59 1799.02 1483.49 1809.8 1460.49 1801.79 C 1448.26 1797.58 1435.09 1788.58 1425.72 1779.56 C 1355.66 1712.18 1293.46 1635.74 1231.54 1560.92 C 1211.11 1536.24 1179.24 1502.91 1164.52 1475.93 C 1092.13 1482.46 1019.55 1486.75 946.895 1488.79 C 923.627 1489.49 899.684 1488.8 876.366 1489.02 C 809.486 1489.63 743.127 1487.25 676.296 1485.52 C 614.932 1484.16 553.602 1481.55 492.344 1477.7 C 411.335 1473.08 300.965 1468.65 232.173 1424.52 C 160.117 1378.29 141.035 1249.68 128.404 1171.09 C 107.356 1040.15 98.6163 905.265 94.4835 772.759 C 91.6232 681.053 95.3721 582.992 111.86 492.688 C 118.785 456.73 126.778 430.769 153.728 403.758 C 184.095 373.323 220.434 348.445 256.706 325.304 C 286.492 306.301 316.602 283.972 348.716 268.87 C 444.098 231.787 569.095 228.199 669.49 225.453 z" fill="currentColor" transform="translate(0,0)"></path>
<path d="M 673.294 252.539 C 710.702 251.013 750.168 251.798 787.573 252.475 C 861.307 253.583 934.992 256.897 1008.53 262.411 C 1203.66 275.177 1397.97 298.411 1590.62 332.013 C 1626.43 338.497 1660.81 345.326 1696.38 353.008 C 1770.61 369.036 1859.8 397.121 1892.19 473.208 C 1903.64 500.106 1906.84 532.748 1911.08 561.99 C 1928.81 684.419 1928.67 808.501 1927 931.924 C 1926 1005.4 1924.72 1080.88 1917.22 1154.09 C 1912.59 1193.79 1907.32 1231.1 1892.53 1268.5 C 1868.66 1328.84 1808.38 1339.55 1750.76 1347.25 C 1718.42 1351.62 1685.91 1354.47 1653.31 1355.8 C 1594.48 1358.75 1600.85 1347.15 1591.46 1405.76 C 1588.78 1422.18 1585.88 1438.56 1582.78 1454.91 C 1569.62 1525.01 1546.8 1630.19 1522.68 1696.47 L 1513.05 1686.33 C 1454.99 1616.7 1397.93 1546.25 1341.88 1474.99 L 1290.81 1409.27 C 1282.32 1398.37 1269.15 1380.38 1259.78 1371.43 C 1252.35 1369.41 1208 1372.01 1197.87 1372.36 L 1105.24 1375.03 C 945.895 1379.91 786.408 1377.22 627.319 1366.95 C 563.012 1362.46 492.845 1356.8 430.045 1342.63 C 398.903 1335.6 359.33 1319.84 336.314 1297.65 C 317.257 1278.91 300.932 1248.38 294.695 1222.31 C 280.586 1163.32 274.518 1099.21 269.054 1039.02 C 262.034 959.713 257.643 880.197 255.888 800.601 C 253.409 696.13 253.517 590.369 264.066 486.349 C 269.381 433.94 274.832 363.189 312.83 323.8 C 325.969 310.138 341.692 299.223 359.085 291.688 C 377.702 283.69 397.838 279.385 417.601 275.229 C 500.489 257.803 588.813 254.131 673.294 252.539 z" fill="none" transform="translate(0,0)"></path>
<path d="M 672.512 285.476 C 729.238 284.205 789.671 286.308 846.425 288.38 C 890.468 289.775 934.494 291.668 978.495 294.057 C 1174.23 306.339 1374.17 328.942 1567.24 363.158 C 1630.24 374.323 1697.07 386.809 1757.61 407.111 C 1779.68 414.509 1810.03 430.118 1827.44 444.762 C 1861.24 473.204 1867.96 505.29 1874.97 546.487 C 1878.75 567.738 1881.55 589.151 1883.38 610.659 C 1896.92 760.976 1896.21 913.023 1888.6 1063.63 C 1885.77 1119.52 1883.82 1192.22 1866.8 1245.41 C 1863.3 1256.35 1857.88 1267.09 1850.43 1275.87 C 1810.95 1322.39 1636.35 1324.11 1573.33 1328.86 C 1565.68 1362.33 1559.57 1404.81 1552.92 1439.82 C 1542.98 1492.88 1530.9 1545.53 1516.73 1597.62 C 1515.26 1603.16 1510.62 1623.84 1508.14 1626.2 C 1504.96 1625.41 1505.49 1624.91 1502.86 1621.7 C 1440.32 1550.89 1381.72 1477.23 1322.31 1403.84 C 1303.72 1380.87 1286.83 1358.28 1267.62 1335.7 C 1249.26 1339.16 1214.01 1340.06 1193.89 1340.74 C 1016.82 1346.69 842.979 1348.38 666.069 1338.92 C 621.817 1336.95 577.65 1333.41 533.651 1328.28 C 479.798 1322.44 397.382 1314.1 356.755 1275.47 C 344.198 1263.73 334.593 1249.18 328.722 1233.03 C 314.994 1195.72 308.289 1131.88 304.056 1092.25 C 294.022 996.458 288.017 900.291 286.056 803.999 C 283.461 682.796 284.843 559.183 300.761 438.895 C 305.937 399.778 307.736 374.068 336.254 344.653 C 346.473 334.058 358.748 325.662 372.326 319.978 C 394.627 310.652 416.52 307.595 439.932 303.319 C 517.011 289.241 594.367 286.774 672.512 285.476 z" fill="currentColor" transform="translate(0,0)"></path>
<path d="M 646.778 312.555 C 674.804 311.255 704.334 311.586 732.379 311.727 C 792.222 312.043 852.049 313.731 911.815 316.79 C 1095.23 324.952 1278.11 342.58 1459.71 369.602 C 1530.91 380.362 1608.11 391.805 1678.21 407.817 C 1727.46 420.394 1807.83 438.547 1835.2 485.367 C 1856.6 521.963 1861.13 599.999 1864.6 642.748 C 1875.38 786.268 1876.35 930.356 1867.49 1074.01 C 1864.75 1121.88 1863.57 1171.41 1851.88 1218.13 C 1848.29 1232.44 1842.93 1254.28 1831.72 1264.67 C 1798.22 1295.74 1658.07 1300.6 1609.9 1302.1 C 1598.32 1302.46 1561.46 1299.84 1554.02 1304.76 C 1552.66 1305.66 1550.74 1307.16 1550.16 1308.74 C 1548.23 1314 1547.94 1321.54 1546.99 1327.15 C 1543.99 1344.83 1541.15 1362.55 1537.92 1380.19 C 1527.96 1434.98 1516.47 1489.48 1503.47 1543.64 C 1501.63 1552.86 1498.4 1564.81 1496.16 1574.14 C 1448.83 1517.04 1402.1 1459.44 1355.98 1401.35 L 1309.4 1342.4 C 1306.17 1338.31 1283.92 1309.05 1280.57 1309.05 C 1251.07 1309.11 1221.05 1311.46 1191.43 1312.46 C 1053.52 1316.3 915.538 1316.89 777.602 1314.22 C 721.145 1313.47 664.726 1310.93 608.429 1306.61 C 558.876 1303.28 507.587 1298.54 458.863 1288.89 C 411.961 1279.6 366.063 1260.53 351.845 1210.3 C 340.924 1171.71 337.451 1130.5 333.34 1090.55 C 323.905 998.127 317.903 905.389 315.349 812.525 C 312.913 735.734 314.236 660.555 317.721 583.876 C 319.744 539.376 320.883 496.601 327.707 452.276 C 330.365 435.008 331.548 419.617 336.774 402.531 C 341.034 388.246 348.663 375.193 359.018 364.47 C 379.332 343.037 402.365 340.313 430.068 334.501 C 501.177 319.583 574.269 314.53 646.778 312.555 z" fill="none" transform="translate(0,0)"></path>
<path d="M 1507.33 685.144 C 1580.8 683.283 1641.91 741.276 1643.88 814.747 C 1645.86 888.219 1587.96 949.412 1514.5 951.505 C 1440.86 953.603 1379.5 895.549 1377.52 821.913 C 1375.54 748.277 1433.69 687.009 1507.33 685.144 z" fill="currentColor" transform="translate(0,0)"></path>
<path d="M 1618.35 815.587 L 1619.44 815.07 L 1620.51 819.428 C 1614.95 860.526 1604.8 893.382 1568.08 917.34 C 1542.02 934.004 1510.47 939.823 1480.18 933.556 C 1461.24 929.528 1433.64 916.202 1423.03 899.948 L 1423.46 899.454 C 1440.8 914.906 1460.93 925.525 1483.86 929.869 C 1510.42 934.786 1537.84 928.741 1559.87 913.112 C 1592.1 890.61 1611.55 853.731 1618.35 815.587 z" fill="none" transform="translate(0,0)"></path>
<path d="M 1618.35 815.587 C 1618.61 812.141 1618.51 807.532 1620.24 804.748 C 1621.9 808.722 1621.11 815.158 1620.51 819.428 L 1619.44 815.07 L 1618.35 815.587 z" fill="currentColor" transform="translate(0,0)"></path>
<path d="M 1107.86 672.742 C 1181.08 666.137 1245.78 720.173 1252.34 793.402 C 1258.89 866.632 1204.81 931.298 1131.58 937.801 C 1058.41 944.297 993.826 890.282 987.278 817.124 C 980.731 743.966 1034.7 679.34 1107.86 672.742 z" fill="currentColor" transform="translate(0,0)"></path>
<path d="M 1226.71 808.159 L 1228.21 808.211 C 1225.28 834.84 1217.84 864.616 1198.87 884.383 C 1156.29 928.764 1086.4 937.224 1040.17 894.854 C 1055.49 904.138 1071.55 912.703 1089.37 915.651 C 1157.83 926.981 1214.44 871.144 1226.71 808.159 z" fill="none" transform="translate(0,0)"></path>
<path d="M 1227.94 786.47 C 1229.07 792.798 1229.94 801.99 1228.21 808.211 L 1226.71 808.159 C 1226.85 800.284 1227.21 794.316 1227.94 786.47 z" fill="currentColor" transform="translate(0,0)"></path>
<path d="M 702.913 666.155 C 775.561 655.989 842.641 706.787 852.55 779.47 C 862.459 852.153 811.424 919.054 738.706 928.705 C 666.351 938.308 599.858 887.584 589.998 815.263 C 580.139 742.943 630.628 676.27 702.913 666.155 z" fill="currentColor" transform="translate(0,0)"></path>
<path d="M 826.595 808.755 C 825.833 826.938 813.437 858.157 802.264 872.319 C 763.174 921.862 692.268 925.288 643.666 887.792 C 642.14 886.468 642.171 886.302 640.936 884.662 C 701.577 921.527 767.325 910.23 807.904 849.895 C 816.604 836.96 821.294 823.248 826.595 808.755 z" fill="none" transform="translate(0,0)"></path>
<path d="M 578.694 338.867 C 584.476 337.809 586.235 338.657 590.196 338.311 C 618.939 335.802 629.847 327.98 658.701 336.643 C 601.611 339.081 556.093 344.207 507.791 376.78 C 492.342 387.199 430.326 419.7 423.788 434.523 C 430.129 435.932 452.136 417.779 454.444 420.598 C 443.209 428.165 429.047 437.743 417.787 444.997 C 411.904 451.003 412.435 450.121 403.167 451.195 L 401.036 450.027 C 401.433 447.001 401.732 446.745 402.804 443.907 L 400.959 442.195 C 393.353 449.526 386.99 463.223 382.124 467.668 C 382.351 460.624 404.378 433.822 410.522 426.872 C 444.764 388.139 521.466 344.213 572.83 340.04 C 575.71 338.743 575.514 338.837 578.694 338.867 z" fill="currentColor" transform="translate(0,0)"></path>
<path d="M 400.959 442.195 C 411.464 431.819 420.2 420.483 431.462 410.847 C 460.073 386.366 495.643 367.949 530.804 354.772 C 533.92 353.605 541.383 350.739 544.362 350.949 C 542.013 357.37 493.7 367.056 482.444 382.052 L 482.146 383.827 C 486.492 383.372 488.604 378.808 494.237 377.933 C 494.839 380.575 494.838 379.197 493.286 382.135 C 489.705 383.937 484.396 386.435 480.487 385.637 L 479.384 383.033 C 465.562 384.261 413.348 433.014 402.804 443.907 L 400.959 442.195 z" fill="currentColor" transform="translate(0,0)"></path>
<path d="M 401.036 450.027 C 411.692 436.395 458.481 394.655 473.668 388.251 L 474.676 388.756 L 470.178 391.817 C 469.864 397.986 465.661 398.842 460.651 401.765 C 443.05 412.033 424.299 422.782 418.183 443.602 L 417.787 444.997 C 411.904 451.003 412.435 450.121 403.167 451.195 L 401.036 450.027 z" fill="currentColor" transform="translate(0,0)"></path>
<path d="M 572.83 340.04 C 575.71 338.743 575.514 338.837 578.694 338.867 L 583.303 340.217 C 581.652 343.319 554.574 349.029 548.949 350.866 L 547.388 350.326 L 547.11 348.984 C 554.576 345.211 566.242 344.707 572.83 340.04 z" fill="currentColor" transform="translate(0,0)"></path>
<path d="M 1780.28 475.313 C 1775.29 466.251 1760.38 453.172 1759.34 449.991 C 1763.23 448.351 1769.39 451.323 1768.59 457.439 C 1771.87 461.494 1776.4 462.989 1779.04 466.48 C 1786.44 476.255 1796.6 488.575 1803.11 498.607 C 1830.39 540.66 1839.21 600.192 1846.36 648.76 C 1846.83 654.511 1847.46 659.098 1846.25 664.825 C 1841.11 655.801 1840.49 640.342 1838.72 629.538 C 1831.78 587.162 1824.86 539.174 1797.52 504.352 L 1796.92 505.177 C 1800.67 511.17 1807.18 520.875 1808.42 527.702 L 1807.27 528.913 C 1804.83 527.375 1778.14 484.851 1777.57 481.134 L 1781.12 482.538 C 1785.4 484.717 1790.87 490.203 1794.61 493.598 C 1789.83 484.501 1787.7 481.925 1780.28 475.313 z" fill="currentColor" transform="translate(0,0)"></path>
<path d="M 1793.99 493.011 C 1801.16 499.353 1809.25 509.195 1811.98 518.497 C 1808.5 515.879 1796.92 497.714 1793.99 493.011 z" fill="currentColor" transform="translate(0,0)"></path>
<path d="M 360.439 1100.27 C 357.474 1095.05 355.189 1074.95 359.452 1070.59 L 360.6 1070.8 C 360.999 1072.78 362.493 1083.15 362.242 1084.28 C 359.628 1096.02 380.681 1168.72 379.336 1173.31 L 376.218 1175.76 L 374.658 1177.31 C 375.039 1184.48 377.969 1193.77 379.923 1200.92 L 379.049 1201.34 C 368.519 1193.87 345.411 1086.78 348.852 1072.03 L 350.229 1071.8 C 356.495 1077.74 352.489 1094.45 356.087 1103.4 C 359.165 1108.63 354.333 1111.28 360.17 1117.42 C 359.945 1111.11 359.64 1106.55 360.439 1100.27 z" fill="currentColor" transform="translate(0,0)"></path>
<path d="M 360.439 1100.27 C 357.474 1095.05 355.189 1074.95 359.452 1070.59 L 360.6 1070.8 C 360.999 1072.78 362.493 1083.15 362.242 1084.28 C 359.628 1096.02 380.681 1168.72 379.336 1173.31 L 376.218 1175.76 C 371.686 1161.23 367.681 1146.54 364.211 1131.73 C 363.182 1127.43 362.847 1120.1 360.17 1117.42 C 359.945 1111.11 359.64 1106.55 360.439 1100.27 z" fill="currentColor" transform="translate(0,0)"></path>
<path d="M 360.17 1117.42 C 362.847 1120.1 363.182 1127.43 364.211 1131.73 C 367.681 1146.54 371.686 1161.23 376.218 1175.76 L 374.658 1177.31 C 371.837 1166.2 356.574 1126.62 360.17 1117.42 z" fill="currentColor" transform="translate(0,0)"></path>
<path d="M 351.674 555.259 C 355.224 541.538 354.079 537.002 360.498 522.906 C 359.381 531.268 351.08 588.791 348.74 592.686 C 343.032 602.186 348.875 601.13 346.524 606.692 L 344.709 606.559 C 343.193 582.994 346.104 559.152 347.984 535.504 C 347.113 537.014 346.37 538.164 345.423 539.62 L 344.248 538.081 C 342.945 523.85 362.181 454.379 369.651 442.035 C 371.638 445.872 368.714 458.59 368.08 463.275 C 367.178 469.934 361.831 464.267 364.26 469.356 L 366.047 470.49 C 366.631 473.887 366.867 472.316 365.37 475.373 L 363.994 475.467 L 362.053 471.373 C 360.417 476.459 358.752 484.697 358.967 490.02 C 360.186 491.567 360.218 491.589 361.706 493.069 C 354.514 509.17 351.35 536.872 349.628 554.746 L 351.674 555.259 z" fill="currentColor" transform="translate(0,0)"></path>
<path d="M 349.628 554.746 L 351.674 555.259 C 350.998 560.986 350.774 565.985 348.641 571.319 L 349.157 569.628 L 348.015 568.748 C 347.961 564.63 349.005 558.955 349.628 554.746 z" fill="currentColor" transform="translate(0,0)"></path>
<path d="M 424.983 1250.26 C 427.24 1253.13 429.634 1254.9 428.943 1258.5 L 427.264 1258.57 C 418.438 1252.31 397.386 1207.83 393.417 1196.16 C 391.513 1190.56 389.122 1180.51 386.879 1174.57 L 386.287 1173.04 L 387.328 1173.06 C 394.608 1180.35 397.8 1197.79 402.604 1207.74 C 406.104 1214.99 408.934 1220.02 413.016 1227.01 L 415.196 1226.97 L 414.421 1223.03 L 415.374 1222.4 C 419.725 1225.3 431.919 1244.43 427.885 1248.44 L 424.983 1250.26 z" fill="currentColor" transform="translate(0,0)"></path>
<path d="M 415.196 1226.97 L 414.421 1223.03 L 415.374 1222.4 C 419.725 1225.3 431.919 1244.43 427.885 1248.44 C 424.876 1243.53 424.41 1242.64 419.965 1239.04 C 418.597 1235.19 416.732 1230.83 415.196 1226.97 z" fill="currentColor" transform="translate(0,0)"></path>
<path d="M 419.965 1239.04 C 424.41 1242.64 424.876 1243.53 427.885 1248.44 L 424.983 1250.26 C 422.065 1247.81 419.797 1243.46 418.385 1239.99 L 419.965 1239.04 z" fill="currentColor" transform="translate(0,0)"></path>
<path d="M 413.016 1227.01 L 415.196 1226.97 C 416.732 1230.83 418.597 1235.19 419.965 1239.04 L 418.385 1239.99 C 416.698 1235.42 414.968 1231.45 413.016 1227.01 z" fill="currentColor" transform="translate(0,0)"></path>
<path d="M 1811.1 500.543 C 1824.44 507.284 1846.9 581.211 1845.24 597.395 L 1843.62 596.095 C 1839.83 586.373 1840.73 581.612 1838.48 572.681 C 1835.58 561.161 1830.55 547.73 1826.79 536.529 C 1823.92 527.985 1811.64 506.899 1811.1 500.543 z" fill="currentColor" transform="translate(0,0)"></path>
<path d="M 370.215 1072.95 C 375.345 1075.94 378.136 1095.16 377.001 1100.3 L 374.439 1100.47 C 372.863 1105.26 376.229 1100.41 377.659 1105.04 C 380.259 1113.46 381.901 1122.57 383.702 1131.23 C 383.038 1132.14 383.558 1131.55 381.719 1132.5 L 379.975 1131.12 C 374.324 1118.13 368.469 1087.21 370.215 1072.95 z" fill="currentColor" transform="translate(0,0)"></path>
<path d="M 1847.38 1090.84 C 1847.95 1091.53 1848.52 1092.11 1848.7 1093 C 1853.68 1117.73 1846.6 1192.67 1834.62 1211.99 C 1834.46 1209.96 1840.91 1187.16 1841.85 1181.3 C 1847.03 1149 1848.52 1123.52 1847.38 1090.84 z" fill="currentColor" transform="translate(0,0)"></path>
<path d="M 502.069 392.053 C 504.796 391.92 503.844 391.599 506.063 392.724 C 503.212 397.785 467.63 415.64 461.234 417.133 L 458.498 417.493 L 458.045 416.251 C 462.669 411.377 494.871 393.705 502.069 392.053 z" fill="currentColor" transform="translate(0,0)"></path>
<path d="M 1737.04 443.103 C 1744.91 445.172 1771.86 466.476 1776.38 474.937 C 1778.36 478.624 1777.77 476.985 1777.57 481.134 C 1766.11 468.908 1750.52 457.815 1737.94 446.43 C 1737.71 446.223 1737.13 443.718 1737.04 443.103 z" fill="currentColor" transform="translate(0,0)"></path>
<path d="M 387.165 1147.52 C 390.952 1150.06 406.531 1197.57 409.436 1205.54 C 399.309 1202.5 388.387 1158.19 387.165 1147.52 z" fill="currentColor" transform="translate(0,0)"></path>
<path d="M 1824.65 1212.09 C 1823.92 1205.46 1832.44 1182.4 1833.76 1173.99 C 1835.07 1165.63 1835.66 1139.34 1839.75 1134.34 C 1843.86 1155.64 1830.12 1191.4 1826.74 1210.25 L 1824.65 1212.09 z" fill="currentColor" transform="translate(0,0)"></path>
<path d="M 402.553 387.658 L 404.872 391.029 C 389.2 403.949 380.654 415.073 375.725 435.288 C 374.622 439.812 373.848 441.779 369.651 442.035 C 372.306 426.663 389.208 397.54 402.553 387.658 z" fill="currentColor" transform="translate(0,0)"></path>
<path d="M 1772.42 453.892 C 1782.61 458.109 1809.58 485.815 1810.49 498.26 C 1807.08 496.022 1800.6 485.073 1796.81 481.063 C 1790.92 474.831 1784.21 464.532 1776.21 460.136 C 1771.82 457.724 1772.06 458.162 1772.42 453.892 z" fill="currentColor" transform="translate(0,0)"></path>
<path d="M 1848.54 644.552 C 1847.53 637.037 1845.46 625.296 1848.6 618.465 C 1851.66 624.045 1852.47 662.22 1850.97 669.779 L 1849.72 670.789 C 1847.51 668.477 1848.07 668.867 1847.18 665.449 L 1849.2 663.568 C 1849.65 657.384 1848.96 650.784 1848.54 644.552 z" fill="currentColor" transform="translate(0,0)"></path>
<path d="M 416.172 377.485 C 431.938 364.078 449.586 355.886 469.326 350.018 C 455.947 357.722 436.007 364.723 425.306 373.908 C 421.187 377.444 423.758 376.471 417.252 380.055 L 416.172 377.485 z" fill="currentColor" transform="translate(0,0)"></path>
<path d="M 1807.46 533.419 C 1815.18 536.849 1822.91 574.309 1823.14 582.454 C 1821.8 581.557 1820.53 580.795 1820.17 579.037 C 1816.97 563.184 1812.88 548.699 1807.46 533.419 z" fill="currentColor" transform="translate(0,0)"></path>
<path d="M 1775.51 497.862 C 1781.08 501.106 1790.14 514.951 1792.17 521.219 C 1786.74 516.674 1776.43 505.116 1775.51 497.862 z" fill="currentColor" transform="translate(0,0)"></path>
<path d="M 1840.15 1096.32 L 1841.16 1096.42 C 1840.98 1109.31 1842.41 1114.35 1840.4 1127.9 C 1839.9 1128.32 1840.24 1128.14 1839.25 1128.09 C 1838.83 1122.41 1837.99 1100.24 1840.15 1096.32 z" fill="currentColor" transform="translate(0,0)"></path>
<path d="M 352.61 1041.72 C 349.987 1037.72 346.883 1031.22 352.092 1027.78 C 355.725 1030.35 354.902 1038.05 354.346 1042.22 L 352.61 1041.72 z" fill="currentColor" transform="translate(0,0)"></path>
<path d="M 348.295 1044.84 L 349.227 1045.6 C 348.811 1054.39 351.76 1059.73 350.686 1068.37 C 344.544 1063.72 346.093 1051.29 348.295 1044.84 z" fill="currentColor" transform="translate(0,0)"></path>
<path d="M 1822.18 585.414 L 1824.41 586.74 C 1826.88 592.86 1828.86 602.932 1829.47 609.535 C 1824.78 606.341 1823.21 591.351 1822.18 585.414 z" fill="currentColor" transform="translate(0,0)"></path>
<path d="M 1843.97 597.607 L 1846.04 598.974 C 1848.73 605.065 1848.7 608.924 1848.83 615.619 C 1846.54 614.921 1847.36 615.335 1845.57 613.638 C 1843.99 607.436 1844.12 603.903 1843.97 597.607 z" fill="currentColor" transform="translate(0,0)"></path>
<path d="M 402.553 387.658 C 405.465 384.94 411.819 381.288 416.172 377.485 L 417.252 380.055 C 413.58 383.319 408.579 388.058 404.872 391.029 L 402.553 387.658 z" fill="currentColor" transform="translate(0,0)"></path>
<path d="M 352.61 1041.72 L 354.346 1042.22 C 354.159 1046.9 356.509 1060.71 354.827 1063.49 C 352.739 1056.3 351.705 1049.2 352.61 1041.72 z" fill="currentColor" transform="translate(0,0)"></path>
<path d="M 1824.65 1212.09 C 1822.93 1219.49 1821.18 1228.85 1816.71 1234.93 C 1817.16 1229.94 1820.41 1214.7 1824.65 1212.09 z" fill="currentColor" transform="translate(0,0)"></path>
<path d="M 371.248 485.647 L 372.448 487.167 C 371.911 491.486 369.454 494.76 367.197 498.605 L 366.312 497.869 C 366.083 492.734 368.254 489.584 371.248 485.647 z" fill="currentColor" transform="translate(0,0)"></path>
<path d="M 259.254 356.119 C 259.703 358.845 250.408 388.211 249.226 393.217 C 237.995 440.799 234.185 489.195 230.796 537.824 C 224.137 640.373 223.036 743.207 227.497 845.875 C 229.941 933.964 236.139 1021.91 246.075 1109.47 C 256.127 1195.01 263.664 1292.57 345.99 1341.14 C 382.459 1362.66 413.405 1369.32 453.245 1379.58 C 429.941 1402.51 403.379 1417.59 377.831 1438.31 C 369.38 1437.37 361.582 1436.2 353.177 1434.87 C 338.526 1433.03 323.775 1429.77 309.496 1426.03 C 268.593 1415.32 232.633 1395.95 210.98 1358.4 C 143.735 1241.78 121.494 861.344 121.988 715.205 C 122.193 654.587 125.104 593.246 133.228 533.167 C 135.882 513.544 138.502 493.336 143.67 474.189 C 146.722 462.877 150.907 452.059 157.368 442.243 C 178.278 410.475 226.157 375.352 259.254 356.119 z" fill="none" transform="translate(0,0)"></path>
<path d="M 1255.03 1411.95 C 1258.16 1414.01 1276.28 1437.62 1280.05 1442.3 L 1385.96 1575.09 C 1404.06 1597.59 1423.63 1619.43 1441.53 1641.86 C 1464.6 1670.75 1486.25 1697.09 1510.84 1724.76 C 1506.47 1738.93 1500.15 1752.75 1492.38 1765.37 C 1482.18 1781.92 1472.01 1780.03 1457.76 1770.84 C 1441.54 1759.29 1419.6 1735.16 1405.6 1719.98 C 1360.77 1671.38 1318.78 1619.93 1277 1568.73 L 1228.62 1508.86 C 1216.41 1493.96 1202.39 1477.72 1190.9 1462.44 C 1201.78 1451.59 1241.55 1421.4 1255.03 1411.95 z" fill="none" transform="translate(0,0)"></path>
<path d="M 479.725 1382.87 C 493.803 1383.13 529.439 1387.94 544.019 1390.01 C 526.596 1406.65 504.32 1420.66 486.604 1437.3 C 481.903 1441.71 477.438 1448.29 472.754 1448.62 C 450.367 1447.16 428.033 1444.97 405.787 1442.07 C 429.8 1423.33 461.605 1407.53 479.725 1382.87 z" fill="none" transform="translate(0,0)"></path>
<path d="M 568.259 1392.7 C 585.294 1392.69 601.287 1394.64 618.205 1396.41 C 599.534 1415.04 580.649 1433.9 561.885 1452.47 C 559.035 1455.29 558.385 1454.62 554.754 1454.54 L 502.12 1450.84 C 520.192 1435.6 555.431 1410.46 568.259 1392.7 z" fill="none" transform="translate(0,0)"></path>
<path d="M 712.738 1401.28 C 730.96 1402.01 749.188 1402.58 767.421 1402.99 C 750.883 1420.59 726.769 1436.21 706.739 1457.07 C 702.768 1460.95 662.993 1458.14 655.507 1457.76 C 675.17 1441.97 699.146 1422.24 712.738 1401.28 z" fill="none" transform="translate(0,0)"></path>
<path d="M 643.296 1397.89 C 657.087 1399.21 671.29 1399.47 685.343 1400.74 C 671.832 1420.1 643.749 1436.67 628.715 1454.32 C 628.642 1454.46 628.614 1454.64 628.496 1454.76 C 625.641 1457.52 593.954 1455.08 587.905 1454.97 C 591.276 1451.15 595.289 1447.47 599.157 1444.12 C 615.536 1429.92 629.386 1414.45 643.296 1397.89 z" fill="none" transform="translate(0,0)"></path>
<path d="M 1165.73 1401.44 L 1178.38 1400.94 C 1167.7 1411.41 1156.94 1421.8 1146.1 1432.11 C 1134.4 1443.11 1125.81 1449.24 1116.88 1462.61 C 1108.05 1462.16 1101.84 1462.35 1092.97 1462.76 L 1078.08 1463.41 C 1086.26 1454.72 1092.47 1448.39 1101.52 1440.42 C 1115.94 1427.72 1131.3 1418.78 1142.41 1403.07 C 1149.29 1402.1 1158.6 1401.84 1165.73 1401.44 z" fill="none" transform="translate(0,0)"></path>
<path d="M 795.465 1404.77 L 825.125 1405.11 C 812.429 1418.87 783.285 1445.46 769.844 1460.76 C 768.646 1460.88 767.448 1461 766.25 1461.12 C 755.233 1461.27 744.635 1460.99 733.632 1460.7 C 757.337 1440.84 773.337 1426.2 795.465 1404.77 z" fill="none" transform="translate(0,0)"></path>
<path d="M 1089.71 1404.58 C 1097.16 1404.01 1105.92 1404.01 1113.49 1403.83 C 1091.43 1422.03 1068.38 1440.03 1050.28 1461.89 C 1048.98 1463.46 1041.8 1462.96 1039.33 1462.91 L 1018.11 1463.3 C 1030.87 1451.27 1071.06 1419.5 1075.81 1405.09 L 1089.71 1404.58 z" fill="none" transform="translate(0,0)"></path>
<path d="M 852.828 1405.58 L 885.352 1406.04 C 871.507 1421.13 844.956 1443.4 828.661 1459.74 C 822.215 1464.8 807.983 1462.68 800.016 1462.02 C 807.598 1450.08 825.02 1436.44 835.386 1425.8 C 842.483 1418.52 846.481 1413.72 852.828 1405.58 z" fill="none" transform="translate(0,0)"></path>
<path d="M 1665.34 1378.59 C 1669.65 1378.13 1670.9 1378.08 1675.21 1378.33 C 1672.18 1392.18 1632.01 1417.17 1619.16 1423.94 C 1615.63 1425.79 1615.29 1426.04 1611.44 1426.81 C 1610.74 1424.68 1617.27 1386.63 1618.17 1381.05 C 1634.52 1380.7 1648.97 1379.78 1665.34 1378.59 z" fill="none" transform="translate(0,0)"></path>
<path d="M 964.003 1406.31 C 973.574 1405.78 985.034 1406.06 994.751 1406.06 C 977.243 1426.94 954.02 1443.97 938.783 1463.97 C 934.846 1466.4 916.172 1465.09 910.363 1464.92 C 927.006 1447.84 957.99 1426.65 964.003 1406.31 z" fill="none" transform="translate(0,0)"></path>
<path d="M 909.368 1407.05 L 940.67 1406.94 C 932.108 1415.93 923.202 1424.6 913.973 1432.91 C 904.345 1441.44 893.874 1449.6 885.042 1458.86 C 878.621 1467.23 866.169 1464.33 855.995 1464.15 C 871.41 1450.11 900.437 1424.56 909.368 1407.05 z" fill="none" transform="translate(0,0)"></path>
<path d="M 1020.46 1405.52 L 1050.81 1404.77 C 1037.35 1417.92 1023.75 1430.83 1009.24 1442.81 C 1003.21 1447.79 997.209 1452.8 991.943 1458.62 C 988.154 1466.9 975.388 1464.88 966.868 1465.07 C 979.087 1451.27 1010.6 1423.42 1015.98 1410.99 L 1017.6 1407.34 L 1018.12 1406.13 L 1020.46 1405.52 z" fill="none" transform="translate(0,0)"></path>
<path d="M 1744.62 1372.39 L 1748.22 1371.77 L 1749.38 1372.61 C 1738.33 1389.62 1694.87 1408.67 1675.28 1415.64 L 1672 1416.64 L 1671.07 1416.07 C 1686.55 1399.81 1691.25 1395.8 1704.99 1377.31 C 1717.99 1375.29 1731.51 1373.91 1744.62 1372.39 z" fill="none" transform="translate(0,0)"></path>
<path d="M 1221.25 1398.58 C 1224.46 1398.26 1229.34 1397.45 1232.07 1398.68 C 1214.64 1412.88 1186.82 1435.9 1168.74 1448.44 C 1165.46 1449.89 1161.54 1451.1 1158.11 1452.27 C 1175.22 1434.26 1192.63 1416.52 1210.32 1399.07 L 1221.25 1398.58 z" fill="none" transform="translate(0,0)"></path>
<path d="M 1818.38 1357.25 C 1818.6 1358.25 1818.51 1357.53 1817.93 1359.39 C 1800.83 1375.15 1793.53 1378.36 1772.15 1387.79 L 1772.59 1386.18 C 1791.92 1366.76 1792.03 1365.7 1818.38 1357.25 z" fill="none" transform="translate(0,0)"></path>
<path d="M 656.215 1733.41 C 664.27 1732.64 678.147 1732.1 683.857 1738.46 C 684.639 1741.33 684.924 1743.95 687.038 1745.85 C 703.151 1745.4 733.264 1727.59 738.422 1756.21 C 745.368 1753.59 752.957 1751.33 760.157 1749.45 C 770.059 1746.87 785.358 1744.38 790.999 1755.55 C 791.173 1755.9 792.952 1758.8 792.981 1758.79 C 811.86 1756.93 837.185 1741.91 855.497 1750.92 C 878.022 1745.09 914.822 1734.84 937.879 1734.99 C 942.754 1735.02 945.289 1737.96 948.059 1741.56 C 964.229 1736.99 975.564 1732 991.692 1738.24 L 998.176 1746.72 C 1017.61 1742.89 1043.5 1737.14 1063.01 1740.64 C 1068.25 1741.58 1070.37 1745.65 1073 1749.88 L 1073.76 1751.13 C 1079.56 1751.16 1090.46 1749.34 1096.34 1748.34 C 1113.27 1745.45 1122.52 1745.38 1139.16 1747.86 C 1142.25 1751.15 1143.45 1753.13 1145.98 1756.92 C 1164.1 1751.95 1199.25 1741.55 1216.85 1747.71 C 1222.89 1749.83 1224.28 1753.97 1226.67 1759.4 C 1241.47 1756.49 1283.49 1747.29 1298.06 1753.37 C 1302.61 1755.26 1304.19 1762.26 1305.52 1766.87 C 1320.87 1763.31 1411.42 1738.93 1383.72 1782.65 C 1395.47 1782.16 1418.53 1772.82 1424.78 1783.42 C 1424.82 1787.95 1425.62 1786.24 1423.3 1789.11 C 1412.98 1794.09 1369.99 1799.19 1356.88 1802.04 C 1349.77 1803.58 1338.46 1791.96 1354.47 1786 C 1353.45 1786.13 1348.78 1786.17 1347.96 1786.08 C 1333.8 1784.56 1303.88 1799.16 1291.69 1794.95 C 1289.03 1792.48 1288.23 1787.9 1287.15 1784.24 C 1246.65 1795.28 1206.08 1806.36 1164.68 1814.01 C 1157.37 1815.36 1148.98 1815.82 1142.75 1811.33 C 1137.11 1799.91 1159.35 1790.91 1166.85 1787.25 C 1150.2 1790.82 1074.94 1806.22 1059.71 1805.03 C 1032.26 1791.67 1093.35 1771.95 1100.4 1769.02 L 1100.28 1768.38 C 1072.13 1768.3 963.792 1810.92 954.71 1809.46 C 951.551 1808.95 949.064 1807.37 947.361 1804.68 C 945.797 1802.21 945.164 1798.91 946.17 1796.11 C 948.808 1788.78 995.575 1773.2 1004.62 1769.97 C 1018.95 1765.05 1037.04 1759.33 1050.59 1753.31 C 1030.51 1755.12 1010.61 1758.63 991.127 1763.83 C 944.84 1775.97 898.224 1792.11 853.099 1807.99 C 830.271 1816.02 833.539 1795.33 838.744 1793.05 C 858.482 1784.39 876.604 1773.66 895.649 1763.95 C 864.272 1771.05 741.578 1825.63 720.106 1819.78 C 717.434 1819.06 715.469 1817.27 714.196 1814.86 C 712.528 1811.69 712.414 1806.15 713.717 1802.85 C 718.814 1789.98 752.007 1776.1 764.804 1770.09 C 747.051 1771.6 735.8 1778.24 719.026 1781.81 C 701.68 1785.5 614.348 1816.01 603.921 1804.69 C 582.178 1781.08 655.28 1767.38 670.38 1755.4 C 660.964 1750.19 557.079 1792.3 536.712 1794.85 C 530.461 1792.16 531.067 1788.2 532.603 1782.46 C 537.199 1776.77 569.631 1766.12 579.725 1761.29 C 552.798 1766.59 525.95 1773.78 499.574 1781.36 C 482.778 1786.19 385.577 1817.62 375.186 1816.7 C 371.812 1816.4 370.461 1815.17 368.487 1812.56 C 367.617 1804.92 370.627 1801.87 378.474 1800 C 446.782 1783.72 512.634 1759.8 581.349 1744.88 C 606.04 1739.5 631.044 1735.67 656.215 1733.41 z" fill="currentColor" transform="translate(0,0)"></path>
<path d="M 854.837 1760.39 L 857.537 1760.68 C 846.833 1765.74 832.156 1770.17 820.847 1774.5 C 791.805 1785.61 764.122 1794.34 734.246 1802.87 L 732.231 1802.98 L 731.453 1802.05 C 744.716 1789.83 795.908 1772.24 815.417 1767.68 C 825.822 1765.25 843.955 1762.04 854.837 1760.39 z" fill="none" transform="translate(0,0)"></path>
<path d="M 1266.81 1769.38 C 1269.96 1768.98 1274.74 1768.68 1277.66 1769.63 C 1273.8 1772.84 1194.69 1792.45 1185.75 1794.49 L 1169.33 1798.3 C 1194.37 1782.9 1237.5 1773.02 1266.81 1769.38 z" fill="none" transform="translate(0,0)"></path>
<path d="M 710.006 1759.18 C 712.399 1758.94 715.99 1758.89 718.489 1758.78 C 721.796 1760.57 720.903 1759.27 722.105 1762.13 C 717.541 1766.35 653.273 1783.85 642.643 1786.76 L 627.371 1790.16 C 647.787 1778.48 686.553 1764.91 710.006 1759.18 z" fill="none" transform="translate(0,0)"></path>
<path d="M 971.658 1749.27 L 974.913 1749.2 L 976.239 1750.58 C 972.877 1754.68 900.484 1775.9 887.971 1780.09 C 886.227 1780.57 884.522 1780.98 882.763 1781.4 L 883.422 1780.25 C 911.001 1765.3 940.787 1754.84 971.658 1749.27 z" fill="none" transform="translate(0,0)"></path>
<path d="M 1190.74 1761.32 C 1195.35 1760.76 1200.49 1759.6 1204.29 1762.28 C 1199.64 1766.67 1135.44 1778.18 1122.91 1780.75 C 1115.56 1782.06 1111.88 1782.43 1104.41 1782.8 C 1136.67 1774.33 1156.17 1766.97 1190.74 1761.32 z" fill="none" transform="translate(0,0)"></path>
</svg>