<svg xmlns="http://www.w3.org/2000/svg" preserveAspectRatio="none" style="display: block;" version="1.1" viewBox="0 0 2048 2048">
<path d="M 252.615 373.393 C 303.159 364.808 360.543 390.834 401.639 418.051 C 483.605 472.334 525.326 570.796 559.273 659.43 C 612.924 659.931 666.577 660.096 720.229 659.926 C 770.612 659.994 822.158 660.656 872.421 659.989 C 868.75 625.366 865.144 606.983 873.795 570.966 C 888.42 511.918 925.734 461.017 977.644 429.301 C 1118.42 343.101 1336.95 419.459 1347.03 597.056 C 1348.16 617.08 1341.28 643.155 1336.26 662.896 C 1370.56 662.153 1406.86 663.468 1441.37 663.749 C 1516.12 663.637 1590.86 664.618 1665.58 666.692 C 1699.58 667.131 1733.58 667.855 1767.57 668.862 C 1798.41 669.614 1832.23 666.083 1857.61 686.201 C 1876.17 698.09 1870.08 719.629 1849.05 721.805 C 1818.83 724.932 1783.28 722.356 1752.9 723.59 C 1715.83 850.976 1673.83 976.879 1627.01 1101.02 L 1593.44 1193.62 C 1580.17 1229.33 1560.18 1291.76 1520.93 1303.37 C 1500.71 1309.35 1454.29 1306.86 1431.78 1307.08 L 1267.43 1308.76 C 1101.81 1310.99 936.17 1311.94 770.535 1311.61 C 775.469 1326.3 781.916 1341.99 780.744 1357.94 C 778.835 1383.92 755.176 1400.73 729.849 1396.95 C 713.886 1394.56 705.649 1386.62 696.409 1374.16 C 674.07 1405.06 682.525 1432.7 721.82 1439.52 C 748.713 1444.18 784.102 1438.12 811.794 1437.7 C 836.038 1437.34 861.001 1435.9 885.425 1435.17 C 1036.45 1432.1 1187.51 1431.28 1338.55 1432.7 L 1473.59 1432.98 C 1517.25 1433.04 1581 1428.57 1620.89 1449.44 C 1636.8 1457.77 1635.71 1479.55 1624.88 1492.61 C 1600.03 1522.57 1551.4 1526.34 1515.14 1530.92 C 1536.77 1544.59 1555.75 1571.53 1554.9 1597.97 C 1554.2 1616.75 1545.97 1634.45 1532.06 1647.08 C 1492.41 1683.08 1418.89 1678.7 1383.88 1638 C 1372.79 1625.24 1367.43 1608.5 1369.04 1591.67 C 1371.71 1561.01 1387.13 1544.49 1409.02 1526.03 C 1312.13 1524.71 1213.47 1526.28 1116.46 1526.15 C 1020.81 1525.9 925.16 1524.46 829.544 1521.81 C 863.07 1536.33 890.575 1569.86 881.696 1607.99 C 870.312 1656.87 818.28 1681.28 771.634 1669.94 C 748.109 1664.28 727.773 1649.56 715.057 1628.97 C 705.493 1613.13 702.76 1594.09 707.483 1576.2 C 713.448 1553.51 732.506 1531.38 752.503 1519.91 C 721.661 1520 693.233 1521.2 663.484 1510.4 C 598.809 1486.93 588.861 1416.15 611.402 1358.22 C 623.168 1327.99 643.509 1314.3 672.629 1301.86 C 664.488 1265.72 647.929 1225.06 635.569 1189.72 L 549.933 952.186 C 531.72 900.129 513.147 848.198 494.217 796.397 C 487.938 779.172 471.524 732.833 463.145 718.891 C 459.779 718.553 448.964 717.866 445.245 718.235 C 412.628 721.759 389.251 702.078 415.488 672.561 C 426.299 660.397 445.484 659.788 460.232 659.971 C 452.805 640.46 439.341 616.008 429.79 597.41 C 396.152 531.902 355.574 477.646 276.907 469.125 C 249.018 466.164 219.491 467.645 196.134 449.432 C 180.292 437.078 175.782 414.953 189.562 399.2 C 205.033 381.513 230.176 375.769 252.615 373.393 z" fill="currentColor" transform="translate(0,0)"></path>
<path d="M 1091.01 417.407 C 1096.25 416.646 1108.73 416.713 1114.04 416.771 C 1163.27 417.419 1211.03 433.664 1250.44 463.171 C 1296.12 497.447 1334.23 555.521 1335.39 614.005 C 1336.12 650.446 1319.4 693.116 1297.42 721.831 C 1257.48 773.486 1198.73 807.242 1133.99 815.727 C 1133.21 815.831 1132.43 815.928 1131.65 816.02 C 1019.02 829.305 904.623 762.505 891.514 643.807 C 885.99 590.879 901.857 537.939 935.58 496.774 C 974.099 449.177 1031.01 423.816 1091.01 417.407 z" fill="none" transform="translate(0,0)"></path>
<path d="M 1221.22 503.125 C 1243.24 502.876 1254.75 522.368 1241.05 540.387 C 1234.22 549.373 1227 557.623 1219.67 566.191 L 1178.87 613.976 L 1119.87 683.451 C 1078.46 731.66 1076.86 740.623 1026.18 688.095 C 1014.12 675.59 999.985 661.827 987.669 649.272 C 980.282 641.79 965.344 628.931 963.611 618.455 C 961.258 606.442 975.846 594.001 987.064 597.213 C 999.982 600.911 1014.69 618.246 1024.84 627.267 C 1040.75 641.418 1055.16 657.253 1070.66 671.698 C 1078.9 665.01 1098.98 640.752 1106.7 631.775 C 1131.84 602.443 1156.81 572.971 1181.62 543.363 C 1191.24 531.877 1208.18 508.249 1221.22 503.125 z" fill="currentColor" transform="translate(0,0)"></path>
<path d="M 1221.89 511.815 C 1235.81 511.781 1242.16 524.271 1233.03 535.124 C 1185.49 591.714 1137.66 648.167 1089.53 704.263 C 1069.49 727.623 1048.88 697.539 1034.22 682.749 L 990.037 638.579 C 983.308 631.961 966.61 617.71 976.106 607.399 C 980.839 604.986 985.258 605.754 989.865 608.135 C 1008.77 617.906 1056.32 679.784 1070.43 679.978 C 1074.97 680.04 1078.67 677.88 1081.98 674.96 C 1092.25 665.894 1100.25 653.22 1109.21 642.749 C 1130.07 618.376 1151.5 594.494 1171.98 569.792 C 1187.58 550.968 1202.71 528.804 1221.01 512.574 C 1221.3 512.318 1221.6 512.068 1221.89 511.815 z" fill="none" transform="translate(0,0)"></path>
<path d="M 1270.74 704.928 L 1271.37 705.705 C 1271.29 709.354 1269.04 714.077 1267.12 717.08 C 1247.91 747.122 1212.17 773.889 1177.85 782.769 L 1177.6 782.549 C 1177.59 782.156 1177.58 781.763 1177.58 781.37 C 1188.16 775.708 1198.92 770.805 1208.99 764.163 C 1232.28 748.812 1253.92 727.207 1270.74 704.928 z" fill="currentColor" transform="translate(0,0)"></path>
<path d="M 1274.24 683.667 L 1275.33 684.146 C 1280.73 694.072 1239.94 728.597 1232.28 736.155 C 1225.44 742.902 1214.47 749.453 1205.67 753.501 L 1204.64 752.831 C 1207.55 748.767 1226.2 733.999 1231.9 728.33 C 1244.58 715.738 1260.78 694.3 1274.24 683.667 z" fill="currentColor" transform="translate(0,0)"></path>
<path d="M 1064.99 434.166 L 1068.07 434.133 C 1068.67 432.972 1006.87 467.675 1001.29 471.206 L 998.885 471.847 L 998.709 470.954 C 1011 455.926 1045.74 438.836 1064.99 434.166 z" fill="currentColor" transform="translate(0,0)"></path>
<path d="M 1014.55 781.011 C 1020.13 781.524 1031.44 785.44 1037.47 786.961 C 1043.09 788.382 1066.65 792.522 1069.4 796.051 C 1055.05 799.78 1026.06 790.126 1014.55 781.011 z" fill="currentColor" transform="translate(0,0)"></path>
<path d="M 674.962 1315.97 L 675.597 1316.21 C 677.816 1318.5 688.747 1356.38 690.592 1362.45 C 666.334 1392.13 664.451 1434.09 709.653 1445.7 C 730.614 1451.08 763.639 1448.87 786.426 1448.88 L 887.549 1448.96 L 1327.26 1451.68 L 1439.82 1453.03 C 1478.86 1453.29 1517.95 1454.07 1556.92 1456.96 C 1576.75 1458.42 1594.49 1461.46 1611.61 1472.01 C 1601.7 1490.36 1579.96 1497 1561.03 1501.73 C 1525.56 1507.25 1479.13 1506.13 1442.62 1506.02 C 1393.99 1505.76 1345.35 1505.84 1296.72 1506.25 C 1179.48 1507.19 1062.24 1507.51 944.998 1507.22 C 888.838 1507.84 832.674 1507.95 776.512 1507.55 C 743.324 1507.16 692.456 1509.72 662.535 1496.16 C 642.774 1487.4 627.307 1471.14 619.541 1450.96 C 609.657 1424.53 613.79 1383.92 625.863 1358.77 C 637.218 1335.11 651.024 1324.63 674.962 1315.97 z" fill="none" transform="translate(0,0)"></path>
<path d="M 246.75 389.371 C 285.819 385.988 318.626 394.047 353.12 411.724 C 463.771 468.427 502.108 571.035 547.162 677.866 C 573.381 738.941 597.046 801.082 618.095 864.127 L 570.801 864.38 L 559.194 864.791 C 530.828 773.413 505.858 686.229 462.413 602.106 C 419.277 518.58 376.077 455.426 273.61 454.245 C 258.287 454.069 225.452 450.049 212.983 440.694 C 175.751 412.764 218.366 392.81 246.75 389.371 z" fill="none" transform="translate(0,0)"></path>
<path d="M 566.924 896.277 C 586.819 897.328 607.379 897.497 627.344 897.902 C 661.204 997.552 690.273 1104.69 721.156 1206.04 L 752.178 1306.18 C 756.445 1320.13 762.619 1337.77 764.893 1352.11 C 766.06 1359.46 760.975 1367.16 756.457 1372.63 C 746.41 1381.1 735.67 1383.29 723.563 1377.3 C 706.608 1368.9 702.612 1344.58 697.766 1327.68 C 692.237 1308.42 686.863 1289.13 681.643 1269.79 C 672.716 1237.27 661.738 1203.5 652.16 1170.91 C 631.511 1100.58 610.066 1030.49 587.83 960.64 C 581.157 939.242 573.187 917.678 566.924 896.277 z" fill="none" transform="translate(0,0)"></path>
<path d="M 1478.44 728.527 C 1500.91 728.093 1523.38 727.834 1545.85 727.749 C 1535.05 763.356 1529.29 800.983 1516.94 837.765 C 1527.34 822.518 1533.9 808.106 1540.6 791.046 C 1542.82 785.383 1547.01 770.03 1549.82 766.097 C 1550.17 772.583 1526.58 856.905 1523.35 868.445 L 1501.48 868.055 L 1333.8 866.855 C 1340.9 820.871 1351.46 775.745 1357.65 728.911 C 1397.91 729.027 1438.18 728.899 1478.44 728.527 z" fill="none" transform="translate(0,0)"></path>
<path d="M 675.524 724.467 C 734.822 723.009 802.831 725.751 862.653 726.244 C 864.76 743.562 894.097 862.607 893.85 864.01 L 721.17 863.614 C 712.977 835.137 703.984 806.896 694.201 778.925 C 689.59 765.702 678.49 736.952 675.524 724.467 z" fill="none" transform="translate(0,0)"></path>
<path d="M 1653.87 723.5 C 1683.56 723.046 1713.27 722.999 1742.97 723.36 C 1723.76 769.727 1705.15 822.861 1687.82 870.306 C 1667.26 869.914 1646.11 870.049 1625.5 869.957 L 1536.11 869.053 C 1540.17 853.324 1548.23 831.233 1553.33 815.233 C 1562.89 785.206 1572.03 755.047 1580.74 724.765 C 1605.11 724.168 1629.49 723.747 1653.87 723.5 z" fill="none" transform="translate(0,0)"></path>
<path d="M 1490.74 904.5 L 1509.2 904.214 C 1501.1 929.419 1493.16 954.674 1485.38 979.978 C 1481.09 993.758 1477.57 1007.36 1472.23 1020.77 L 1328.5 1020.83 L 1309.52 1020.65 C 1315.46 987.06 1322.12 938.415 1329.47 906.287 C 1380.95 904.108 1438.47 905.545 1490.74 904.5 z" fill="none" transform="translate(0,0)"></path>
<path d="M 1121.9 906.311 C 1181.53 906.896 1241.17 907.086 1300.8 906.879 C 1296.46 940.606 1291.5 974.25 1285.91 1007.79 L 1283.54 1020.94 L 1125.32 1020.86 C 1125.99 980.054 1122.81 945.92 1121.9 906.311 z" fill="none" transform="translate(0,0)"></path>
<path d="M 735.268 901.808 C 752.973 901.321 776.185 902.503 794.249 902.859 L 902.406 904.656 C 908.576 940.366 919.511 984.808 927.311 1021.25 C 874.953 1021.87 822.591 1022.08 770.23 1021.87 C 759.241 982.672 745.122 940.831 735.268 901.808 z" fill="none" transform="translate(0,0)"></path>
<path d="M 1306.09 1043.14 C 1327.36 1043.13 1351.48 1042.64 1372.48 1043.82 L 1366.12 1046.25 L 1366.54 1047.14 C 1377.94 1050.86 1448.28 1053.18 1464.47 1053.82 C 1455.72 1088.6 1444.71 1122.41 1435.71 1156.99 C 1409.91 1157.34 1383.36 1156.98 1357.5 1156.92 L 1274.68 1156.24 C 1276.3 1143.4 1289.29 1049.88 1292.66 1044.13 L 1294.21 1044.44 C 1296.15 1050.91 1293.01 1063.9 1291.94 1071.05 C 1289.16 1089.72 1286.81 1106.52 1287.08 1125.47 C 1293.51 1098.54 1299.38 1069.26 1306.09 1043.14 z" fill="none" transform="translate(0,0)"></path>
<path d="M 929.501 904.89 C 938.808 904.7 948.725 904.771 958.03 904.978 C 1002.1 905.956 1046.86 904.059 1090.85 905.647 C 1092.41 939.949 1093.79 986.954 1093.6 1020.95 C 1078.04 1021.73 1058.52 1021.17 1042.62 1021.18 L 948.55 1021.34 C 941.892 982.721 936.528 943.076 929.501 904.89 z" fill="none" transform="translate(0,0)"></path>
<path d="M 1655.91 899.425 C 1662.54 898.91 1671.61 898.964 1678.43 898.796 C 1661.94 936.879 1648.51 981.101 1632.77 1020.3 C 1595.78 1021.19 1555.88 1020.33 1518.48 1020.73 C 1510.46 1020.78 1502.17 1020.42 1494.13 1020.18 C 1500.71 1003.95 1507.36 977.857 1512.31 960.463 C 1516.83 944.568 1524.8 919.277 1527.57 903.753 C 1567.26 903.631 1616.38 901.904 1655.91 899.425 z" fill="none" transform="translate(0,0)"></path>
<path d="M 882.972 1042.5 L 931.039 1042.02 C 932.367 1047.23 933.248 1052.56 934.245 1057.84 C 940.471 1090.83 948.131 1123.55 954.054 1156.6 L 850.5 1156.83 L 813.907 1156.99 C 805.664 1134.01 797.98 1110.84 790.862 1087.49 C 786.581 1073.77 780.956 1056.64 778.241 1042.7 L 882.972 1042.5 z" fill="none" transform="translate(0,0)"></path>
<path d="M 1127.02 1043 C 1177.42 1042.87 1230.66 1042.15 1280.87 1043.33 C 1273.91 1077.34 1270.01 1107.43 1265.56 1141.76 L 1263.54 1156.27 C 1218.75 1156.03 1173.95 1156.1 1129.16 1156.47 L 1127.02 1043 z" fill="none" transform="translate(0,0)"></path>
<path d="M 1798.68 676.455 C 1802.71 676.425 1810.08 676.047 1813.06 678.829 C 1820.54 685.807 1820.37 702.775 1813.75 710.31 C 1811.24 713.341 1807.31 713.855 1803.5 713.955 C 1789.08 714.333 1774.45 713.953 1760.02 713.954 L 1666.99 714.001 L 1343.5 711.842 L 1319.4 711.836 C 1323.23 703.607 1326.43 695.484 1329.81 687.072 C 1369.12 686.856 1409.47 685.288 1448.89 684.488 L 1798.68 676.455 z" fill="none" transform="translate(0,0)"></path>
<path d="M 953.036 1042.77 L 1094.68 1043.05 C 1096.13 1081.03 1096.75 1119.01 1099.04 1156.93 C 1057.57 1157.41 1015.05 1156.97 973.506 1156.97 C 966.642 1119.34 958.883 1080.45 953.036 1042.77 z" fill="none" transform="translate(0,0)"></path>
<path d="M 1269.76 1189.15 C 1320.3 1188.22 1374.95 1189.15 1425.98 1188.93 C 1417.68 1221.22 1410.41 1246.13 1400.03 1277.76 L 1396.64 1289.11 C 1350.04 1288.94 1303.44 1289.14 1256.84 1289.69 C 1256.89 1277.78 1259.96 1258.75 1261.67 1246.81 L 1269.76 1189.15 z" fill="none" transform="translate(0,0)"></path>
<path d="M 1485.5 1053.15 C 1530.61 1053.77 1575.72 1053.94 1620.83 1053.66 C 1610.31 1086.74 1597.82 1120.18 1586.04 1152.9 C 1585.42 1154.68 1585.01 1156.18 1583.74 1157.63 C 1582.46 1159.09 1467.05 1157.06 1457.17 1157.02 L 1485.5 1053.15 z" fill="none" transform="translate(0,0)"></path>
<path d="M 822.138 1186.98 L 959.384 1187.87 C 967.954 1221.71 976 1255.4 985.358 1289.07 C 941.915 1289.14 898.472 1288.89 855.032 1288.32 C 843.415 1255.64 832.347 1220.16 822.138 1186.98 z" fill="none" transform="translate(0,0)"></path>
<path d="M 1129.25 1189.36 C 1172.96 1189.81 1216.68 1189.75 1260.39 1189.19 C 1256.14 1218.61 1252.74 1248.14 1250.19 1277.76 L 1249.05 1289.77 L 1129.65 1290.06 C 1127.83 1260.85 1129.47 1219.98 1129.25 1189.36 z" fill="none" transform="translate(0,0)"></path>
<path d="M 1310.72 729.093 L 1323.69 729.054 C 1318.31 758.883 1316.11 786.044 1313.16 816.202 C 1311.53 832.873 1308.26 849.483 1306.6 866.333 C 1246.13 865.436 1185.66 865.082 1125.19 865.269 C 1122.03 865.334 1121.28 865.57 1118.27 864.557 C 1114.52 860.293 1114.1 845.62 1113.06 838.538 C 1192.99 833.584 1267.32 798.996 1310.72 729.093 z" fill="none" transform="translate(0,0)"></path>
<path d="M 980.08 1188.96 C 1019.89 1187.94 1061.06 1188.81 1101.02 1188.8 C 1104.63 1221.34 1104.84 1258.21 1109.31 1289.93 C 1073.05 1290.25 1036.79 1290.03 1000.54 1289.28 C 996.177 1258.04 987.272 1219.67 980.08 1188.96 z" fill="none" transform="translate(0,0)"></path>
<path d="M 1552.44 1187.44 C 1558.34 1187.04 1566.33 1187.17 1572.4 1187.09 C 1569.02 1197.36 1564.78 1208.02 1560.42 1217.76 C 1551.07 1238.69 1542.62 1260.34 1526.31 1276.96 C 1515.78 1287.7 1505.03 1290.31 1490.55 1290.28 C 1473.75 1290.24 1457.22 1290.19 1440.57 1290.09 L 1419.96 1289.83 C 1430.52 1259.86 1440.67 1220.13 1449.56 1188.97 C 1483.86 1189.08 1518.16 1188.57 1552.44 1187.44 z" fill="none" transform="translate(0,0)"></path>
<path d="M 564.107 675.024 C 581.621 675.027 599.968 676.385 617.656 676.584 C 703.946 677.555 792.266 682.86 878.338 683.108 C 880.147 687.875 887.619 704.891 885.968 708.372 C 783.644 708.444 681.322 709.476 579.017 711.466 C 573.921 700.005 568.872 686.755 564.107 675.024 z" fill="none" transform="translate(0,0)"></path>
<path d="M 905.987 745.925 C 913.398 751.921 927.915 770.828 938.784 779.641 C 987.521 819.158 1030.5 834.22 1091.07 839.146 C 1090.79 847.432 1091.15 856.534 1091.31 864.887 L 921.118 864.509 C 921.083 854.196 917.839 832.298 916.592 821.415 C 913.719 796.36 911.069 770.602 905.987 745.925 z" fill="none" transform="translate(0,0)"></path>
<path d="M 582.938 721.715 C 603.935 721.864 624.927 722.363 645.907 723.212 C 656.302 752.989 666.14 782.957 675.415 813.101 C 680.267 828.779 686.614 847.951 689.579 863.873 L 634.631 864.047 C 628.017 842.041 620.64 820.271 612.516 798.776 C 602.914 773.936 591.017 746.78 582.938 721.715 z" fill="none" transform="translate(0,0)"></path>
<path d="M 646.232 898.983 C 664.05 899.313 682.717 900.289 700.593 900.946 C 713.282 938.267 724.436 982.842 735.609 1021.42 C 718.087 1021.4 700.565 1021.58 683.047 1021.95 C 672.788 982.567 657.784 938.734 646.232 898.983 z" fill="none" transform="translate(0,0)"></path>
<path d="M 693.692 1042.48 L 741.582 1043.09 C 754.004 1080.11 763.833 1118.09 776.487 1155.66 L 775.055 1157.06 L 722.994 1157.18 C 712.658 1119.3 700.445 1082.22 689.915 1044.4 C 690.146 1043.86 690.378 1043.32 690.609 1042.79 L 693.692 1042.48 z" fill="none" transform="translate(0,0)"></path>
<path d="M 731.361 1183.44 C 748.828 1184.36 766.303 1185.12 783.784 1185.74 L 819.046 1288.37 C 801.378 1288.95 781.565 1288.47 763.74 1288.42 C 753.702 1252.95 742.244 1218.63 731.361 1183.44 z" fill="none" transform="translate(0,0)"></path>
<path d="M 728.89 883.416 C 747.127 882.402 770.263 883.04 788.802 882.969 C 827.506 882.715 866.211 882.68 904.915 882.865 C 948.103 882.809 991.29 883.176 1034.47 883.967 C 1042.2 884.057 1085.45 882.897 1089.45 885.5 L 1089.74 888.095 C 1000.36 888.968 910.971 888.702 821.596 887.298 L 757.207 886.843 C 749.357 886.76 740.141 886.831 732.239 886.325 C 729.93 886.177 729.926 885.186 728.89 883.416 z" fill="none" transform="translate(0,0)"></path>
<path d="M 466.804 673.448 C 469.099 675.784 480.493 706.399 482.305 711.09 C 471.508 711.012 458.175 710.988 447.681 708.504 C 437.059 705.882 422.723 699.409 433.984 685.935 C 441.545 676.887 455.405 674.21 466.804 673.448 z" fill="none" transform="translate(0,0)"></path>
<path d="M 1534.82 1591.87 C 1536.11 1593.65 1536.14 1594.89 1536.18 1597.15 C 1536.87 1639.69 1501.61 1649.79 1468.28 1651.91 L 1467.61 1651.38 L 1467.88 1650.26 C 1471.6 1649.27 1475.28 1648.14 1478.92 1646.86 C 1512.37 1635.38 1520.22 1621.47 1534.82 1591.87 z" fill="none" transform="translate(0,0)"></path>
<path d="M 1121.12 884.498 C 1163.52 884.271 1205.91 884.3 1248.31 884.583 C 1256.33 884.615 1296.72 884.267 1302.59 885.504 L 1303.42 886.946 L 1301.85 888.957 C 1284.13 888.932 1123.94 889.227 1119.2 886.91 L 1119.1 885.637 L 1121.12 884.498 z" fill="none" transform="translate(0,0)"></path>
<path d="M 1335.49 771.021 C 1334.64 777.365 1333.78 785.672 1332.61 791.806 C 1328.84 817.867 1327.65 840.497 1325.61 866.675 C 1321.33 866.695 1316.67 866.504 1312.36 866.417 C 1315.77 842.501 1324.37 812.039 1330.46 788.054 C 1331.49 782.482 1332.44 776.898 1333.32 771.303 L 1335.49 771.021 z" fill="none" transform="translate(0,0)"></path>
<path d="M 1330.54 885.249 C 1345.65 884.404 1381.03 886.064 1398.01 886.244 L 1476.9 886.951 C 1483.06 886.982 1511.15 886.55 1515.06 887.653 L 1515.89 889.575 C 1507.04 890.836 1335.34 889.951 1331.44 888.608 L 1330.54 885.249 z" fill="none" transform="translate(0,0)"></path>
<path d="M 473.646 718.842 L 485.593 718.753 C 495.109 744.24 506.995 779.703 514.782 805.536 C 514.03 804.759 476.704 726.171 473.646 718.842 z" fill="none" transform="translate(0,0)"></path>
<path d="M 792.52 1572.12 L 794.066 1572.63 C 793.233 1575.11 771.962 1609.37 769.781 1611.29 C 755.741 1588.73 771.364 1577.2 792.52 1572.12 z" fill="none" transform="translate(0,0)"></path>
<path d="M 1433.68 1540.93 C 1436.35 1541.17 1436.41 1541.31 1438.94 1542.31 C 1438.47 1543.58 1426.64 1549.61 1424.3 1551.49 C 1401.49 1569.83 1390.36 1603.69 1410.2 1628.37 L 1410.47 1629.16 L 1409.68 1629.66 C 1388.02 1610.84 1393.52 1572.65 1412.5 1553.9 C 1419.44 1547.05 1425.01 1544.38 1433.68 1540.93 z" fill="none" transform="translate(0,0)"></path>
<path d="M 1554.21 1173.54 C 1559.93 1173.29 1573 1172.12 1577.77 1173.78 C 1577.65 1176.67 1574.37 1180.03 1571.61 1179.87 C 1563.22 1179.39 1554.91 1178.71 1546.51 1178.38 C 1523.78 1177.5 1501.04 1176.93 1478.29 1176.66 C 1470.05 1176.44 1462.24 1176.71 1454.16 1175.08 C 1458.7 1173.04 1542.34 1173.8 1554.21 1173.54 z" fill="none" transform="translate(0,0)"></path>
<path d="M 1315.26 905.672 L 1316.38 906.958 C 1316.69 911.084 1300.25 1016.41 1298.37 1021.7 L 1296.51 1019.38 C 1296.42 1018.29 1310.77 909.45 1311.59 907.087 L 1315.26 905.672 z" fill="none" transform="translate(0,0)"></path>
<path d="M 749.785 1540.98 L 750.601 1541.99 C 734.549 1564.98 728.61 1580.36 726.089 1608.55 L 725.075 1609.01 C 721.922 1601.73 720.712 1593.75 721.565 1585.87 C 723.626 1567.63 735.812 1552.05 749.785 1540.98 z" fill="none" transform="translate(0,0)"></path>
<path d="M 1437.33 1566.31 L 1438.7 1566.28 C 1442.41 1566.24 1448.57 1565.85 1451.21 1568.44 C 1449.92 1569.15 1448.65 1569.88 1447.39 1570.63 C 1435.34 1577.87 1427.62 1588.34 1424.22 1601.89 C 1423.98 1607.36 1423.87 1608.85 1422.51 1614.12 C 1418.68 1594.92 1416.83 1576.73 1437.33 1566.31 z" fill="none" transform="translate(0,0)"></path>
<path d="M 889.238 761.094 L 890.597 761.174 C 891.49 777.559 911.123 856.367 908.931 863.431 L 907.149 864.07 L 905.414 862.983 C 903.297 856.008 900.854 839.456 899.581 831.769 C 895.728 808.272 892.28 784.71 889.238 761.094 z" fill="none" transform="translate(0,0)"></path>
<path d="M 1272.6 1173.51 C 1279.86 1173.44 1287.18 1173.46 1294.44 1173.58 C 1338.67 1174.28 1382.89 1173.39 1427.11 1173.46 C 1429.07 1173.47 1430.17 1174.19 1431.66 1175.28 C 1425.99 1176.53 1392.63 1176.07 1384.59 1176.05 L 1273.5 1175.46 L 1272.6 1173.51 z" fill="currentColor" transform="translate(0,0)"></path>
<path d="M 1529.64 888.431 C 1531.02 888.275 1533.25 887.987 1535.49 887.989 C 1583.66 888.028 1632.3 887.061 1680.4 888.493 C 1681.13 889.147 1681.86 889.801 1682.59 890.455 C 1676.93 891.48 1535.78 890.116 1529.64 888.431 z" fill="none" transform="translate(0,0)"></path>
<path d="M 818.897 1173.41 C 828.891 1172.24 853.353 1172.91 864.115 1172.95 L 946.861 1173.41 C 949.542 1173.45 953.313 1173.2 954.954 1174.89 C 914.747 1177.22 871.747 1174.1 831.221 1175.8 C 826.829 1175.98 821.851 1176.58 818.897 1173.41 z" fill="currentColor" transform="translate(0,0)"></path>
<path d="M 979.02 1173.48 C 992.086 1173.19 1094.85 1172.32 1097.92 1174.28 L 1096.14 1174.84 C 1081.5 1175.1 981.419 1176.75 977.324 1174.5 L 979.02 1173.48 z" fill="currentColor" transform="translate(0,0)"></path>
<path d="M 1129.55 1174.51 C 1136.14 1173.95 1157.61 1173.71 1163.3 1174.11 C 1178.88 1175.2 1257.14 1171.15 1262.69 1175.28 C 1255.2 1176.89 1133.16 1176.01 1129.55 1174.51 z" fill="currentColor" transform="translate(0,0)"></path>
<path d="M 562.806 881.228 C 580.582 882.451 603.799 880.736 621.658 882.708 C 623.271 882.886 623.161 883.736 624.112 885.631 C 609.382 886.436 580.242 885.56 564.787 884.463 C 563.458 884.369 563.439 882.98 562.806 881.228 z" fill="none" transform="translate(0,0)"></path>
<path d="M 812.683 1591.91 L 813.327 1592.7 C 815.266 1605.86 810.21 1619.61 796.222 1622.83 L 795.317 1621.77 C 795.346 1619.8 810.191 1596.74 812.683 1591.91 z" fill="none" transform="translate(0,0)"></path>
<path d="M 1107.99 974.466 C 1107.77 961.277 1107.33 948.092 1106.65 934.919 C 1106.04 924.512 1103.39 916.545 1106.99 906.352 L 1107.92 906.348 C 1110.74 920.671 1109.68 962.627 1110.19 978.343 L 1107.99 974.466 z" fill="none" transform="translate(0,0)"></path>
<path d="M 1461.3 1590.03 C 1464.68 1589.57 1467.41 1588.51 1469.5 1591.45 C 1466.87 1592.26 1464.68 1592.46 1461.97 1592.83 C 1456.83 1596.3 1452.67 1603.71 1449.05 1609.12 C 1444.09 1610.23 1445.96 1610.57 1442.08 1608.22 C 1442.69 1599.4 1453.95 1593.2 1461.3 1590.03 z" fill="none" transform="translate(0,0)"></path>
<path d="M 640.854 883.48 C 641.377 883.4 643.721 882.998 644.967 882.998 C 661.051 883.002 677.864 882.021 693.869 883.419 C 694.663 884.126 695.456 884.834 696.25 885.541 C 687.722 886.938 654.246 886.232 643.602 885.44 C 642.686 884.787 641.77 884.133 640.854 883.48 z" fill="none" transform="translate(0,0)"></path>
<path d="M 727.581 1172.44 C 736.094 1171.14 768.021 1172.31 778.351 1172.66 C 779.231 1173.28 780.11 1173.91 780.99 1174.53 C 772.034 1175.81 741.047 1174.95 730.34 1174.33 C 729.421 1173.7 728.501 1173.07 727.581 1172.44 z" fill="currentColor" transform="translate(0,0)"></path>
<path d="M 1107.99 974.466 L 1110.19 978.343 C 1111.22 982.584 1111.29 1016.57 1110.1 1019.86 C 1108.16 1009.1 1108.19 986.258 1107.99 974.466 z" fill="currentColor" transform="translate(0,0)"></path>
<path d="M 1111.14 1042.61 C 1111.66 1043.25 1112.19 1043.88 1112.71 1044.51 C 1113.27 1053.6 1112.84 1078.59 1112.77 1086.45 C 1110.29 1081.72 1111.02 1050.47 1111.14 1042.61 z" fill="currentColor" transform="translate(0,0)"></path>
<path d="M 1500.82 1606.98 C 1499.81 1616.48 1482.55 1626.2 1473.9 1629.17 L 1473.85 1628.2 C 1474.81 1627 1474.81 1626.95 1476.2 1626.27 C 1486.78 1621.09 1493.24 1615.8 1500.82 1606.98 z" fill="currentColor" transform="translate(0,0)"></path>
<path d="M 1102.17 838.773 C 1105.57 841.938 1105.55 860.51 1105.62 865.727 C 1104.41 864.861 1104.37 864.588 1103.4 863.412 C 1102.64 857.453 1101.22 844.288 1102.17 838.773 z" fill="none" transform="translate(0,0)"></path>
<path d="M 889.238 761.094 C 888.426 758.214 884.657 734.655 885.095 731.933 C 887.924 734.803 890.426 756.428 890.597 761.174 L 889.238 761.094 z" fill="currentColor" transform="translate(0,0)"></path>
<path d="M 1484.21 1541.9 C 1495.32 1542.32 1503.28 1549.24 1510.17 1557.34 C 1506.25 1555.81 1495.86 1546.69 1484.21 1541.9 z" fill="currentColor" transform="translate(0,0)"></path>
<path d="M 1336.75 749.324 L 1338.11 749.015 C 1337.35 755.122 1336.51 765.443 1335.49 771.021 L 1333.32 771.303 C 1334.27 763.89 1335.51 756.693 1336.75 749.324 z" fill="currentColor" transform="translate(0,0)"></path>
<path d="M 761.572 1559.69 C 762.215 1566.5 756.186 1573.85 752.266 1580.17 C 752.202 1575.94 759.222 1564.17 761.572 1559.69 z" fill="currentColor" transform="translate(0,0)"></path>
<path d="M 1311.93 885.342 C 1315.5 885.164 1319.22 884.547 1322.31 886.093 L 1322.75 888.494 C 1319.12 888.925 1315.77 889.801 1312.6 888.235 L 1311.93 885.342 z" fill="none" transform="translate(0,0)"></path>
<path d="M 1336.75 749.324 C 1336.96 745.336 1337.14 737.125 1339.51 734.035 L 1339.81 734.486 L 1338.69 734.699 L 1339.99 735.927 C 1339.64 739.132 1338.95 746.018 1338.11 749.015 L 1336.75 749.324 z" fill="currentColor" transform="translate(0,0)"></path>
</svg>