<svg xmlns="http://www.w3.org/2000/svg" preserveAspectRatio="none" style="display: block;" version="1.1" viewBox="0 0 2048 2048">
<path d="M 1076.53 349.403 C 1106.41 345.852 1148.74 366.686 1170.09 386.583 C 1253.08 463.942 1234.91 584.603 1241.09 685.992 C 1273.13 689.435 1306.53 690.75 1338.71 693.308 C 1352.44 694.399 1374.57 694.896 1387.25 697.594 C 1390.12 708.313 1395.09 757.433 1396.72 771.375 L 1413.71 916.098 L 1442.41 1157.44 C 1449.75 1222.13 1457.57 1286.77 1465.86 1351.35 C 1473.96 1410.94 1480.08 1472.75 1494.33 1531.17 C 1496.22 1538.92 1502.67 1547.79 1502.49 1555.69 C 1497.74 1559.21 1477.67 1568.28 1471.62 1571.15 L 1415.29 1598.09 C 1391.79 1609.22 1369.18 1622.16 1345.16 1632.25 C 1337.62 1635.79 1327.32 1634.46 1319.04 1633.32 C 1300.21 1630.74 1281.48 1628.28 1262.49 1626.51 L 1087.7 1610.57 C 1060.08 1608.02 1030.42 1604.28 1002.95 1602.6 C 980.948 1599.69 957.651 1598.32 935.536 1596.44 L 845.404 1588.43 C 782.65 1583.06 719.984 1576.21 656.614 1570.26 C 627.402 1567.51 578.992 1564.8 549.518 1558.59 C 547.911 1558.25 546.304 1554.62 546.483 1553.66 C 549.135 1539.4 564.807 1527.79 569.975 1511.41 C 575.93 1492.54 575.985 1471.44 577.337 1452.23 L 610.756 924.148 C 613.494 883.805 616.022 843.448 618.339 803.079 C 619.225 786.161 624.462 675.428 630.479 669.275 C 636.821 667.758 644.474 668.311 651.444 667.73 C 667.86 666.333 684.242 664.562 700.577 662.418 C 718.232 659.947 732.567 654.782 747.867 652.952 C 755.514 652.037 778.169 655.02 789.154 654.89 L 790.939 654.861 C 791.228 615.661 798.427 569.656 807.125 531.286 C 828.092 438.799 904.247 344.227 1009.88 370.591 C 1029.22 358.845 1054.08 351.681 1076.53 349.403 z" fill="currentColor" transform="translate(0,0)"></path>
<path d="M 637.257 678.048 C 678.763 678.922 721.12 684.433 762.632 686.573 C 771.813 687.046 781.158 687.819 790.179 689.58 C 788.629 708.354 788.256 735.881 788.07 754.972 C 777.595 763.98 770.475 774.713 781.259 788.805 C 790.851 801.34 813.859 789.522 811.378 773.918 C 809.952 764.948 807.198 761.694 800.186 755.982 C 800.206 740.985 800.46 702.786 803.263 689.759 C 820.427 690.422 840.679 692.345 858.127 693.537 L 991.833 703.412 L 1088.35 710.732 C 1106.35 712.095 1124.44 712.95 1142.36 715.061 C 1142.74 740.593 1142.98 762.18 1141.78 787.61 C 1135.2 790.357 1127.33 795.723 1127.18 803.401 C 1126.66 829.768 1164.13 833.387 1163.34 803.973 C 1163.16 797.612 1158.84 793.27 1154.07 789.468 C 1153.42 766.924 1153.66 738.177 1154.86 715.676 C 1186.54 719.663 1219.31 721.022 1251.15 724.46 C 1268.57 726.341 1287.11 727.789 1304.59 728.518 C 1305.88 741.812 1305.37 762.433 1305.91 776.488 C 1307.55 818.994 1307.67 862.501 1309.29 904.971 L 1326.44 1434.9 C 1327.24 1446.5 1327.11 1460.22 1327.65 1472.26 C 1329.73 1520.5 1331.15 1568.77 1331.9 1617.05 C 1325.35 1615.86 1318.01 1615.08 1311.38 1614.32 C 1267.98 1609.39 1224.26 1606.68 1180.79 1602.44 L 779.457 1565.41 L 643.405 1552.95 C 621.76 1551.01 584.615 1548.81 564.214 1545.22 C 575.067 1530 584.086 1513.3 585.762 1494.54 C 588.104 1468.33 589.947 1440.46 591.521 1414.2 L 600.571 1266.74 L 637.257 678.048 z" fill="none" transform="translate(0,0)"></path>
<path d="M 985.788 865.162 C 993.251 864.422 1000.79 865.281 1007.89 867.682 C 1048.68 881.663 1058.72 950.862 1066.87 987.953 C 1075.44 1027.65 1084.57 1067.23 1094.24 1106.68 C 1102.06 1139.57 1111.29 1181.47 1125.05 1211.67 C 1134.59 1231.88 1154.99 1243.02 1177.27 1239.57 C 1184.88 1238.39 1202.1 1242.14 1192.87 1251.36 C 1185.71 1258.51 1164.47 1261.75 1153.81 1262.05 C 1081.5 1264.08 1064.32 1194.72 1051.82 1137.37 C 1050.17 1130.38 1047.35 1111.71 1042.4 1107.65 C 1024.25 1092.73 953.444 1102.92 940.045 1089.99 C 937.652 1083.25 941.248 1081.81 946.884 1079.13 L 948.132 1078.55 C 959.737 1079.97 1030.28 1087.31 1037.04 1084.05 C 1039.6 1074.11 1017.64 986.297 1014.36 971.757 C 1010.71 952.884 1003.5 917.427 988.982 904.483 C 985.775 901.624 982.506 900.285 978.185 900.817 C 973.387 901.407 967.145 904.361 964.36 908.433 C 950.193 929.149 925.125 1014.94 915.494 1043.57 L 888.781 1123.94 C 882.259 1143.17 875.233 1162.22 869.793 1181.87 C 866.433 1194.01 866.287 1207.31 878.367 1214.78 C 889.264 1221.52 901.505 1217.57 912.275 1223.31 C 915.975 1225.27 915.884 1230.92 913.011 1233.77 C 897.752 1237.99 866.105 1231.63 849.469 1231.25 C 832.021 1230.86 811.666 1228.65 794.216 1226.52 C 791.529 1226.19 789.675 1224.22 787.948 1222.33 C 787.448 1220.44 786.917 1219.01 788.257 1217.15 C 793.561 1209.73 801.014 1210.17 808.865 1211.86 C 841.128 1218.78 847.635 1188.54 855.139 1165.23 C 858.236 1155.61 861.739 1146.02 864.905 1136.77 L 916.767 981.828 C 927.111 951.028 935.858 917.126 952.914 889.454 C 961.144 876.099 971.305 870.002 985.788 865.162 z" fill="currentColor" transform="translate(0,0)"></path>
<path d="M 1368.58 703.396 C 1371.88 702.883 1372.11 702.641 1375.44 703.442 C 1379.89 713.059 1387.86 803.65 1390.02 820.504 L 1448.17 1310.37 C 1453.15 1350.14 1458.38 1389.87 1463.87 1429.56 C 1467.95 1460.71 1473.2 1508.2 1482.81 1538.23 C 1467.97 1530.43 1453.51 1521.88 1438.27 1514.95 C 1427.52 1510.07 1417.8 1504.69 1407.66 1498.75 C 1404.1 1484.63 1402.25 1452.77 1401.07 1437.18 L 1393.89 1344.28 L 1362.53 931.751 L 1354.86 837.956 C 1353.57 821.108 1353.68 803.459 1350.55 787.085 L 1349.1 785.645 C 1349.16 785.161 1349.21 784.677 1349.27 784.193 C 1346.3 792.207 1346.95 804.866 1347.18 813.538 C 1358.9 996.105 1372.13 1178.57 1386.88 1360.92 C 1388.97 1390.3 1391.32 1419.67 1393.94 1449.01 C 1394.59 1456.06 1399.69 1499.22 1398.47 1502.51 C 1387.91 1530.96 1360.52 1571.13 1345.12 1596.9 C 1344.88 1567.19 1342.73 1532.14 1341.67 1501.87 L 1335.44 1310.43 L 1316.45 705.83 C 1334.45 704.884 1350.4 705.498 1368.58 703.396 z" fill="none" transform="translate(0,0)"></path>
<path d="M 1011.17 383.932 C 1012.29 384.073 1014.43 384.332 1015.51 384.691 C 1056.55 398.306 1092.56 434.938 1112.71 471.452 C 1140.47 521.759 1143.22 583.788 1143.39 639.946 C 1143.41 648.023 1144.05 671.951 1142.06 678.652 C 1122.5 677.426 1103.37 675.519 1083.75 674.813 C 1041.39 670.477 997.084 669.986 955.08 665.882 C 952.154 616.7 950.071 565.681 952.697 516.507 C 955.057 472.323 973.345 411.111 1011.17 383.932 z" fill="none" transform="translate(0,0)"></path>
<path d="M 967.149 378.579 C 979.572 377.416 985.321 377.85 997.691 379.772 C 994.43 382.89 991.303 386.148 988.322 389.535 C 924.936 460.86 938.358 576.674 943.375 665.716 C 932.56 665.55 918.759 664.068 907.629 663.242 L 843.755 658.837 C 830.461 657.359 816.351 656.328 802.959 655.134 C 804.355 620.774 809.413 583.348 815.692 549.634 C 829.967 472.986 880.709 384.947 967.149 378.579 z" fill="none" transform="translate(0,0)"></path>
<path d="M 1070.57 362.337 C 1108.56 357.898 1145.37 377.796 1170.69 404.781 C 1222.69 460.198 1225.31 539.229 1227.75 610.882 C 1228.57 634.816 1229.72 661.167 1228.53 684.957 C 1218.34 685.286 1200.84 683.369 1189.77 682.824 C 1178.18 681.641 1167.01 681.269 1155.15 679.846 C 1156.25 671.694 1155.42 654.82 1155.54 645.502 C 1156.21 596.355 1153.94 544.897 1137.76 498.061 C 1123.28 456.151 1092.52 416.708 1056.18 391.144 C 1047.49 385.027 1036.74 380.144 1027.02 375.605 C 1041.22 369.289 1055.13 364.334 1070.57 362.337 z" fill="none" transform="translate(0,0)"></path>
<path d="M 1406.71 1510.1 C 1412.61 1512.52 1422.02 1518.17 1427.87 1521.16 C 1445.9 1530.35 1462.3 1540.32 1479.38 1551.12 C 1452.83 1564.56 1424.22 1577.66 1397.25 1590.53 C 1381.59 1597.3 1363.41 1606.87 1347.48 1614.27 C 1367.8 1577.84 1389.03 1548.77 1406.71 1510.1 z" fill="none" transform="translate(0,0)"></path>
</svg>